<mxfile modified="2020-04-15T17:52:24.599Z" host="app.diagrams.net" agent="5.0 (Macintosh; Intel Mac OS X 10_15_4) AppleWebKit/537.36 (KHTML, like Gecko) Chrome/80.0.3987.163 Safari/537.36" etag="C_z2TUlV2GCh9gs1_B2y" version="12.9.12" type="github" pages="2">
  <diagram id="N0pXoSgsfRaU5Hu7Thsm" name="Page-1">
    <mxGraphModel dx="2142" dy="771" grid="0" gridSize="10" guides="1" tooltips="1" connect="1" arrows="1" fold="1" page="0" pageScale="1" pageWidth="850" pageHeight="1100" background="none" math="0" shadow="0">
      <root>
        <mxCell id="0" />
        <mxCell id="1" parent="0" />
        <mxCell id="NAIcI-ZvvqX8R0XCDvSo-3" style="edgeStyle=orthogonalEdgeStyle;rounded=0;orthogonalLoop=1;jettySize=auto;html=1;" parent="1" source="NAIcI-ZvvqX8R0XCDvSo-1" edge="1">
          <mxGeometry relative="1" as="geometry">
            <mxPoint x="-416" y="86.5" as="targetPoint" />
          </mxGeometry>
        </mxCell>
        <mxCell id="NAIcI-ZvvqX8R0XCDvSo-1" value="" style="outlineConnect=0;dashed=0;verticalLabelPosition=bottom;verticalAlign=top;align=center;html=1;shape=mxgraph.aws3.cloudwatch;fillColor=#759C3E;gradientColor=none;" parent="1" vertex="1">
          <mxGeometry x="-586" y="40" width="82.5" height="93" as="geometry" />
        </mxCell>
        <mxCell id="NAIcI-ZvvqX8R0XCDvSo-2" value="&lt;b&gt;&lt;font style=&quot;font-size: 14px&quot;&gt;CloudWatch&lt;br&gt;&amp;nbsp;Events&lt;br&gt;&lt;/font&gt;&lt;/b&gt;" style="text;html=1;strokeColor=none;fillColor=none;align=center;verticalAlign=middle;whiteSpace=wrap;rounded=0;" parent="1" vertex="1">
          <mxGeometry x="-564.5" y="150" width="40" height="20" as="geometry" />
        </mxCell>
        <mxCell id="FF8iImPlqfr5JP4Mh2Vb-3" style="edgeStyle=orthogonalEdgeStyle;rounded=0;orthogonalLoop=1;jettySize=auto;html=1;entryX=0;entryY=0.5;entryDx=0;entryDy=0;" parent="1" source="NAIcI-ZvvqX8R0XCDvSo-4" target="FF8iImPlqfr5JP4Mh2Vb-9" edge="1">
          <mxGeometry relative="1" as="geometry">
            <mxPoint x="-220" y="87" as="targetPoint" />
          </mxGeometry>
        </mxCell>
        <mxCell id="NAIcI-ZvvqX8R0XCDvSo-4" value="" style="outlineConnect=0;dashed=0;verticalLabelPosition=bottom;verticalAlign=top;align=center;html=1;shape=mxgraph.aws3.step_functions;fillColor=#D9A741;gradientColor=none;" parent="1" vertex="1">
          <mxGeometry x="-414" y="40" width="76.5" height="93" as="geometry" />
        </mxCell>
        <mxCell id="FF8iImPlqfr5JP4Mh2Vb-1" value="&lt;b&gt;&lt;font style=&quot;font-size: 14px&quot;&gt;Step&amp;nbsp;&lt;br&gt;Function&lt;br&gt;&lt;/font&gt;&lt;/b&gt;" style="text;html=1;strokeColor=none;fillColor=none;align=center;verticalAlign=middle;whiteSpace=wrap;rounded=0;" parent="1" vertex="1">
          <mxGeometry x="-396" y="150" width="40" height="20" as="geometry" />
        </mxCell>
        <mxCell id="FF8iImPlqfr5JP4Mh2Vb-53" style="edgeStyle=none;rounded=0;orthogonalLoop=1;jettySize=auto;html=1;endArrow=classic;endFill=1;" parent="1" source="FF8iImPlqfr5JP4Mh2Vb-2" edge="1">
          <mxGeometry relative="1" as="geometry">
            <mxPoint x="31.5" y="170" as="targetPoint" />
          </mxGeometry>
        </mxCell>
        <mxCell id="FF8iImPlqfr5JP4Mh2Vb-2" value="" style="outlineConnect=0;dashed=0;verticalLabelPosition=bottom;verticalAlign=top;align=center;html=1;shape=mxgraph.aws3.lambda_function;fillColor=#F58534;gradientColor=none;" parent="1" vertex="1">
          <mxGeometry x="-13" y="40" width="89" height="83" as="geometry" />
        </mxCell>
        <mxCell id="FF8iImPlqfr5JP4Mh2Vb-4" value="&lt;b&gt;&lt;font style=&quot;font-size: 14px&quot;&gt;&amp;nbsp;Lambda&lt;br&gt;Functions&lt;br&gt;&lt;/font&gt;&lt;/b&gt;" style="text;html=1;strokeColor=none;fillColor=none;align=center;verticalAlign=middle;whiteSpace=wrap;rounded=0;" parent="1" vertex="1">
          <mxGeometry x="96" y="66.5" width="40" height="20" as="geometry" />
        </mxCell>
        <mxCell id="FF8iImPlqfr5JP4Mh2Vb-48" style="edgeStyle=none;rounded=0;orthogonalLoop=1;jettySize=auto;html=1;entryX=0.5;entryY=0;entryDx=0;entryDy=0;endArrow=classic;endFill=1;" parent="1" source="FF8iImPlqfr5JP4Mh2Vb-5" target="FF8iImPlqfr5JP4Mh2Vb-47" edge="1">
          <mxGeometry relative="1" as="geometry" />
        </mxCell>
        <mxCell id="FF8iImPlqfr5JP4Mh2Vb-5" value="" style="outlineConnect=0;dashed=0;verticalLabelPosition=bottom;verticalAlign=top;align=center;html=1;shape=mxgraph.aws3.run_command;fillColor=#759C3E;gradientColor=none;" parent="1" vertex="1">
          <mxGeometry x="-63" y="503" width="89" height="60" as="geometry" />
        </mxCell>
        <mxCell id="FF8iImPlqfr5JP4Mh2Vb-7" value="&lt;b&gt;&lt;font style=&quot;font-size: 14px&quot;&gt;&amp;nbsp; Run&lt;br&gt;Remote&amp;nbsp;&lt;br&gt;Command&lt;br&gt;&lt;/font&gt;&lt;/b&gt;" style="text;html=1;strokeColor=none;fillColor=none;align=center;verticalAlign=middle;whiteSpace=wrap;rounded=0;" parent="1" vertex="1">
          <mxGeometry x="-70" y="190" width="40" height="20" as="geometry" />
        </mxCell>
        <mxCell id="FF8iImPlqfr5JP4Mh2Vb-11" style="edgeStyle=orthogonalEdgeStyle;rounded=0;orthogonalLoop=1;jettySize=auto;html=1;" parent="1" source="FF8iImPlqfr5JP4Mh2Vb-9" edge="1">
          <mxGeometry relative="1" as="geometry">
            <mxPoint x="-175" y="290" as="targetPoint" />
          </mxGeometry>
        </mxCell>
        <mxCell id="FF8iImPlqfr5JP4Mh2Vb-19" style="edgeStyle=orthogonalEdgeStyle;rounded=0;orthogonalLoop=1;jettySize=auto;html=1;" parent="1" source="FF8iImPlqfr5JP4Mh2Vb-9" edge="1">
          <mxGeometry relative="1" as="geometry">
            <mxPoint x="-30" y="86" as="targetPoint" />
          </mxGeometry>
        </mxCell>
        <mxCell id="FF8iImPlqfr5JP4Mh2Vb-9" value="&lt;font size=&quot;1&quot;&gt;&lt;b style=&quot;font-size: 14px&quot;&gt;EC2 Status&lt;/b&gt;&lt;/font&gt;" style="rhombus;whiteSpace=wrap;html=1;" parent="1" vertex="1">
          <mxGeometry x="-220" y="39" width="90" height="94" as="geometry" />
        </mxCell>
        <mxCell id="FF8iImPlqfr5JP4Mh2Vb-12" value="&lt;b&gt;&lt;font style=&quot;font-size: 14px&quot;&gt;EC2 Stopped&lt;br&gt;&lt;/font&gt;&lt;/b&gt;" style="text;html=1;strokeColor=none;fillColor=none;align=center;verticalAlign=middle;whiteSpace=wrap;rounded=0;" parent="1" vertex="1">
          <mxGeometry x="-230" y="180" width="40" height="20" as="geometry" />
        </mxCell>
        <mxCell id="FF8iImPlqfr5JP4Mh2Vb-15" style="edgeStyle=orthogonalEdgeStyle;rounded=0;orthogonalLoop=1;jettySize=auto;html=1;entryX=1;entryY=0.79;entryDx=0;entryDy=0;entryPerimeter=0;" parent="1" source="FF8iImPlqfr5JP4Mh2Vb-13" target="NAIcI-ZvvqX8R0XCDvSo-4" edge="1">
          <mxGeometry relative="1" as="geometry">
            <Array as="points">
              <mxPoint x="-280" y="310" />
              <mxPoint x="-280" y="113" />
            </Array>
          </mxGeometry>
        </mxCell>
        <mxCell id="FF8iImPlqfr5JP4Mh2Vb-13" value="" style="outlineConnect=0;dashed=0;verticalLabelPosition=bottom;verticalAlign=top;align=center;html=1;shape=mxgraph.aws3.lambda_function;fillColor=#F58534;gradientColor=none;" parent="1" vertex="1">
          <mxGeometry x="-220" y="290" width="89" height="83" as="geometry" />
        </mxCell>
        <mxCell id="FF8iImPlqfr5JP4Mh2Vb-14" value="&lt;b&gt;&lt;font style=&quot;font-size: 14px&quot;&gt;&amp;nbsp;Lambda&lt;br&gt;Functions&lt;br&gt;&lt;/font&gt;&lt;/b&gt;" style="text;html=1;strokeColor=none;fillColor=none;align=center;verticalAlign=middle;whiteSpace=wrap;rounded=0;" parent="1" vertex="1">
          <mxGeometry x="-195.5" y="390" width="40" height="20" as="geometry" />
        </mxCell>
        <mxCell id="FF8iImPlqfr5JP4Mh2Vb-18" value="&lt;b&gt;&lt;font style=&quot;font-size: 14px&quot;&gt;EC2 Start&lt;br&gt;&lt;/font&gt;&lt;/b&gt;" style="text;html=1;strokeColor=none;fillColor=none;align=center;verticalAlign=middle;whiteSpace=wrap;rounded=0;" parent="1" vertex="1">
          <mxGeometry x="-330" y="230" width="40" height="20" as="geometry" />
        </mxCell>
        <mxCell id="FF8iImPlqfr5JP4Mh2Vb-20" value="&lt;b&gt;&lt;font style=&quot;font-size: 14px&quot;&gt;EC2 Start&lt;br&gt;&lt;/font&gt;&lt;/b&gt;" style="text;html=1;strokeColor=none;fillColor=none;align=center;verticalAlign=middle;whiteSpace=wrap;rounded=0;" parent="1" vertex="1">
          <mxGeometry x="-80" y="50.5" width="40" height="20" as="geometry" />
        </mxCell>
        <mxCell id="FF8iImPlqfr5JP4Mh2Vb-27" value="" style="outlineConnect=0;fontColor=#232F3E;gradientColor=#F34482;gradientDirection=north;fillColor=#BC1356;strokeColor=#ffffff;dashed=0;verticalLabelPosition=bottom;verticalAlign=top;align=center;html=1;fontSize=12;fontStyle=0;aspect=fixed;shape=mxgraph.aws4.resourceIcon;resIcon=mxgraph.aws4.sns;" parent="1" vertex="1">
          <mxGeometry x="136" y="629" width="74" height="74" as="geometry" />
        </mxCell>
        <mxCell id="FF8iImPlqfr5JP4Mh2Vb-55" style="edgeStyle=none;rounded=0;orthogonalLoop=1;jettySize=auto;html=1;endArrow=classic;endFill=1;" parent="1" source="FF8iImPlqfr5JP4Mh2Vb-28" edge="1">
          <mxGeometry relative="1" as="geometry">
            <mxPoint x="39.5" y="340" as="targetPoint" />
          </mxGeometry>
        </mxCell>
        <mxCell id="FF8iImPlqfr5JP4Mh2Vb-28" value="" style="shape=image;verticalLabelPosition=bottom;labelBackgroundColor=#ffffff;verticalAlign=top;aspect=fixed;imageAspect=0;image=data:image/png,iVBORw0KGgoAAAANSUhEUgAAALQAAACaCAYAAAAAa2J0AAAKuWlDQ1BJQ0MgUHJvZmlsZQAASImVlgdQk9kWx+/3pTda6FJCb4L0KiX0AEqvohKSkIQSY0JQsCuLCq4FFRFQFF2kKLgqRdaCWLCwCDawLsgioKxiAQsq+wFL2H1v3nvzzszJ/c3Jueeec+e7M38AKIApFKbCcgCkCdJFYX6etJjYOBquD+CBCuLqgMBkiYX0kJAggNjM+k8bewCgyfWu+WStf///v5o8myNmAQCFIJzIFrPSED6D+AuWUJQOAKoEieutSBdOcjPCiiKkQYTvTTJ3mgcnOXGav07lRIR5AYBGpsKTmUwRFwCyBhKnZbC4SB3yfIQtBWy+AOHJft1YPCYb4eMIz01LWzbJ3QgbJ/6tDvcfNROlNZlMrpSnZ5kyvDdfLExlZv6f1/G/LS1VMnOGIeJknsg/DFllkDvrTlkWKGVB4sLgGeazp/KnmCfxj5xhltgrbobZTO9A6d7UhUEznMT3ZUjrpDMiZpgj9gmfYdGyMOlZSSIv+gwzRbPnSlIipXEehyGtn8WLiJ7hDH7UwhkWp4QHzuZ4SeMiSZi0f47Az3P2XF/p7Gniv83LZ0j3pvMi/KWzM2f75wjoszXFMdLe2Bxvn9mcSGm+MN1TepYwNUSaz0n1k8bFGeHSvenIBzm7N0R6h8nMgJAZBv4gBNBAFLJaAwcA0jkr0yeH8FomzBTxubx0Gh15XRwaQ8CymEuztrRyAmDyrU5/Cu+7p94gpIyfjXG/AGBbisCh2RhfH4CmBgCoW2ZjBo0AyFUBcBHDkogypmPoyR8MIAJZoAjUgBbQA8bAHOnMHrgAD+ADAkAwiACxYAlgAR5IAyKwAqwGG0AOyAM7wV5QBErBEVABToBToAGcA5fANXALdID74DHoAf3gFRgBY2AcgiAcRIGokBqkDRlAZpA15Ai5QT5QEBQGxUIJEBcSQBJoNbQJyoPyoSLoMFQJ/QydhS5BN6BO6CHUCw1B76AvMAomw4qwJmwIz4MdYTocCEfAi2EuvBzOgrPh7XAhXAYfh+vhS/At+D7cA7+CR1EARUIpo3RQ5ihHlBcqGBWHSkKJUGtRuagCVBmqBtWEakXdRfWghlGf0Vg0FU1Dm6Nd0P7oSDQLvRy9Fr0NXYSuQNejr6DvonvRI+jvGApGA2OGccYwMDEYLmYFJgdTgCnH1GGuYu5j+jFjWCxWGWuEdcD6Y2OxydhV2G3YA9habDO2E9uHHcXhcGo4M5wrLhjHxKXjcnD7ccdxF3F3cP24T3gSXhtvjffFx+EF+I34AnwV/gL+Dn4AP06QIxgQnAnBBDYhk7CDcJTQRLhN6CeME+WJRkRXYgQxmbiBWEisIV4lPiG+J5FIuiQnUiiJT1pPKiSdJF0n9ZI+kxXIpmQvcjxZQt5OPkZuJj8kv6dQKIYUD0ocJZ2ynVJJuUx5RvkkQ5WxkGHIsGXWyRTL1MvckXktS5A1kKXLLpHNki2QPS17W3ZYjiBnKOclx5RbK1csd1auS25UnipvJR8snya/Tb5K/ob8oAJOwVDBR4GtkK1wROGyQh8VRdWjelFZ1E3Uo9Sr1H5FrKKRIkMxWTFP8YRiu+KIkoKSrVKU0kqlYqXzSj3KKGVDZYZyqvIO5VPKD5S/qGiq0FU4KltValTuqHxUnaPqocpRzVWtVb2v+kWNpuajlqK2S61B7ak6Wt1UPVR9hfpB9avqw3MU57jMYc3JnXNqziMNWMNUI0xjlcYRjTaNUU0tTT9NoeZ+zcuaw1rKWh5ayVp7tC5oDWlTtd20+dp7tC9qv6Qp0ei0VFoh7QptREdDx19HonNYp11nXNdIN1J3o26t7lM9op6jXpLeHr0WvRF9bf0F+qv1q/UfGRAMHA14BvsMWg0+GhoZRhtuNmwwHDRSNWIYZRlVGz0xphi7Gy83LjO+Z4I1cTRJMTlg0mEKm9qZ8kyLTW+bwWb2ZnyzA2adczFzneYK5pbN7TInm9PNM8yrzXstlC2CLDZaNFi8nqc/L27ernmt875b2lmmWh61fGylYBVgtdGqyeqdtak1y7rY+p4NxcbXZp1No81bWzNbju1B2247qt0Cu812LXbf7B3sRfY19kMO+g4JDiUOXY6KjiGO2xyvO2GcPJ3WOZ1z+uxs75zufMr5jYu5S4pLlcvgfKP5nPlH5/e56royXQ+79rjR3BLcDrn1uOu4M93L3J976HmwPco9Bugm9GT6cfprT0tPkWed50cvZ681Xs3eKG8/71zvdh8Fn0ifIp9nvrq+XN9q3xE/O79Vfs3+GP9A/13+XQxNBotRyRgJcAhYE3AlkBwYHlgU+DzINEgU1LQAXhCwYPeCJwsNFgoWNgSDYEbw7uCnIUYhy0N+CcWGhoQWh74IswpbHdYaTg1fGl4VPhbhGbEj4nGkcaQksiVKNio+qjLqY7R3dH50T8y8mDUxt2LVY/mxjXG4uKi48rjRRT6L9i7qj7eLz4l/sNho8crFN5aoL0ldcn6p7FLm0tMJmITohKqEr8xgZhlzNJGRWJI4wvJi7WO9Ynuw97CHOK6cfM5AkmtSftIg15W7mzvEc+cV8Ib5Xvwi/ttk/+TS5I8pwSnHUiZSo1Nr0/BpCWlnBQqCFMGVZVrLVi7rFJoJc4Q9y52X710+IgoUlYsh8WJxY7oiIoraJMaSHyS9GW4ZxRmfVkStOL1SfqVgZVumaebWzIEs36yfVqFXsVa1rNZZvWF17xr6msNrobWJa1vW6a3LXte/3m99xQbihpQNv2603Ji/8cOm6E1N2ZrZ67P7fvD7oTpHJkeU07XZZXPpFvQW/pb2rTZb92/9nsvOvZlnmVeQ93Uba9vNH61+LPxxYnvS9vYd9jsO7sTuFOx8sMt9V0W+fH5Wft/uBbvr99D25O75sHfp3hsFtgWl+4j7JPt6CoMKG/fr79+5/2sRr+h+sWdxbYlGydaSjwfYB+4c9DhYU6pZmlf65RD/UPdhv8P1ZYZlBUewRzKOvDgadbT1J8efKsvVy/PKvx0THOupCKu4UulQWVmlUbWjGq6WVA8djz/eccL7RGONec3hWuXavJPgpOTky58Tfn5wKvBUy2nH0zVnDM6U1FHrcuuh+sz6kQZeQ09jbGPn2YCzLU0uTXW/WPxy7JzOueLzSud3XCBeyL4wcTHr4mizsHn4EvdSX8vSlseXYy7fuxJ6pf1q4NXr13yvXW6lt1687nr93A3nG2dvOt5suGV/q77Nrq3uV7tf69rt2+tvO9xu7HDqaOqc33nhjvudS3e97167x7h36/7C+50PIh90d8V39XSzuwcfpj58+yjj0fjj9U8wT3Kfyj0teKbxrOw3k99qe+x7zvd697Y9D3/+uI/V9+p38e9f+7NfUF4UDGgPVA5aD54b8h3qeLnoZf8r4avx4Zw/5P8oeW38+swbjzdtIzEj/W9FbyfebXuv9v7YB9sPLaMho8/G0sbGP+Z+UvtU8dnxc+uX6C8D4yu+4r4WfjP51vQ98PuTibSJCSFTxJySAijE4aQkAN4dA4ASi2iHDgCIi6a19JRB0/p/isB/4mm9PWX2AFR4AETqABC6HoDiv6SsbDMAIUg8wgPANjZS/8vESTbW07VIiH7BFExMvEd0I84EgG9dExPjDRMT38qRZh8B0Dw2reEnTRfRVnb6k9RV8WY9+Bf7E460Dg57Gv5lAAABnWlUWHRYTUw6Y29tLmFkb2JlLnhtcAAAAAAAPHg6eG1wbWV0YSB4bWxuczp4PSJhZG9iZTpuczptZXRhLyIgeDp4bXB0az0iWE1QIENvcmUgNS40LjAiPgogICA8cmRmOlJERiB4bWxuczpyZGY9Imh0dHA6Ly93d3cudzMub3JnLzE5OTkvMDIvMjItcmRmLXN5bnRheC1ucyMiPgogICAgICA8cmRmOkRlc2NyaXB0aW9uIHJkZjphYm91dD0iIgogICAgICAgICAgICB4bWxuczpleGlmPSJodHRwOi8vbnMuYWRvYmUuY29tL2V4aWYvMS4wLyI+CiAgICAgICAgIDxleGlmOlBpeGVsWERpbWVuc2lvbj4xODA8L2V4aWY6UGl4ZWxYRGltZW5zaW9uPgogICAgICAgICA8ZXhpZjpQaXhlbFlEaW1lbnNpb24+MTU0PC9leGlmOlBpeGVsWURpbWVuc2lvbj4KICAgICAgPC9yZGY6RGVzY3JpcHRpb24+CiAgIDwvcmRmOlJERj4KPC94OnhtcG1ldGE+CmB/tNYAACetSURBVHgB7Z1Xj2xH1Ya3zcE5gDFgwBiLIKLIICQkZAmQ+BVI/ANu/Uu44AZxD9yAhAQScEcQOYMAAyYZY2zjRPR3njp++nunpqq6e093Tzi7pJpVtXKtenf17t09M9f84x//ePapp56aHnroodL/+c9/Tv/73/+ma665ZqIxPlQzZives88+22IX3ly7rsOZglEeI5ejtY3sdi3bR/4jn3PW/fznP3/C7r///W9Z/rXXXjvddNNN0wtf+MLprrvumi7961//mgAxgH7sscem22+/fXre855XAI1hD9CjRNcVes5C5sbrxZrrb93aevJeHj19+aM8ez5HNvo9FO3lOIo/yh9sCmbGHMaPPPJIwfAtt9wyXcLx008/XfoLXvCC6TWvec0qFleDxitmDEaBQ+3IcLTA3sWDA5LvtZHdKMeRrBdrxB/lMVo3p0yv9XIc+cNXz64XB/4o/5FdL39yHPns2RGrlz/+8Eu/7rrrJg7k3/zmN9Pjjz8+/fvf/54uIQC0TAAwxzdzDOcEHC1cGTFbjfi91rNB/9Klcl02TXsF7RWs6WRD5iiPkYu5OfZqMndtc/Pv5cGaR7nMWTcHG7gEr9Abb7yxAJsc8FeQQFAYzzzzzPT3v/99dQWAfq6CQ7XRBdRbPLn17FjTqNi7Xlcvj3VxRmtbZ7tLOTgYAbAXa5R/ryZz94bDFlADaHLlIgS3tnJCkxAdAD/66KNFhiL31tyOHKqNwDcq9JyC7mNNozxG+Y9k+8iz53OUf88Gfg+0yObuKbatRo51PHAKwP/zn/8cveW4/vrrCxNg33DDDWU8SmgkayUDb+7mzYm1Lt5cn721jfj7WPfI5yHXdsh1u2YowGad8gD7JX5wjCPkKLcQgDoVkTP3/poxuvB9lOIVDt9xvVh91nzmozd+LX15I5/q1DQLUcv2MR/lSE3nNPdqjm3LZpRjS1/eaK/BR6/17NAnF+RQfHirAY910+HTnUPLLUctBFg44LYjlQkEH57gMwAymvq94vT42hYnjR9zN73h6kQsCjhaQ885dem1Of7w1fM5118vv7l88uvtGzmKodo/mMKOTr3BIbrcUsBj7NqRi0F4xx4PqAi1G1AZDt1YAnBTzptH5ARFRm81FtIruIm17HqLb+nuk8cayXOXbc7a3IteHr0a9/RPwp+bP/e9rQaWuP1ljbyH45Ecz5hZUw9X+imAxtCOoC6WxVFHwDLn6skNRoZ+8gwG1VfyNhlzoZyFRv5z19DLn0NhTqv3aY6PXdjMATQ17IETEHPLe+uttxZgA3zWChVfvbzXntBpKEhZgB+6kBhjZAQ1SXXT3nEPENqql/SsbF4v98x12/GoVj1f6+qxTt7zO4ffiwW/dxCNAM0hyfNlbKlN3nKMMELuqxOaiYklZewmMqYDaD4q/9a3vlVeEniJ4NEJDZn2hVH90FfFLtNRsiO7lq998UZrmxtz14DeR46jtY1eYXq5wO/JuN1497vfXb6bASbw70MKcNCzI8djJ/QocR3h9IEHHpg++clPTn/+85/L/TOAJji9d1Xiey4wjT3K7xCyufnvI7eLWhO+ZPTiF794eslLXlLKxjo5KLnwAffo4CtPObDyKsMYQ6hjHMBjM+nocipzq8H3P/hCE7oGyhMnAeBYOtpk/GVzLk3ZeRjPzXtkN5L1ajLHBl9z7Xp5yMevvsHPE088UXDkQwbum8ELOlLzAYcAXXyiszqhE4QGaAVNp8gJfPPNN5dgOMY27QWvVJ+b0vSFjXMpvLm+sW219N2Sz+Flfbexn5tLz67HX5fTyG4kG/nFzo4e4OSJmfup38RVLdO/flaAVrBLanApvk1ykzgmiS6L6rVtfPZ8JH/X/tL3IcaHzv+k8U5qnzXdC6ATwDk28KYLQG9TXX0v9EoFenXr8dfVba7dOr8pJ8ZJ4+wF0CbZAjO8Fl8baC5qnW6tn37mjjP+XB+13Vyfc+zm2NT5HmJOnnbi7SLvvQG6BqJzaatgLggdxqmrrGW3D96u4831t2u7Xfuj9nN9ntS2te97A3QrGDxAmkCt9SxOj9b6zNVtyRbe2a2A+wYdYWKbFawe29VGLeARmM47dpOp7Zhji5zHejSeSzP3WSJ83uTxSAYeD9J5BKPfpNhjy6dFULs6ztHLnC0QcluO1VdWU+1rfsarZaN5HTt1e7FSpzUe+Wzpr+PN9TfHDhu6e5aPjcnT/QUn4McaoSd+0LFjg79yQtcJYVzzMNi0CWD0TYDvV+OTjpxEADIJo0NMwE1DBx4yF+aCzCtzVCYtTp77kXrJ10/yNhnPtdvE90XU6dULPr21Z5vUoeUX3uqWwwA4U1m6SYDUAZiAUTB5MgNSgM3vLXKVAVYfnKc+/AQzeWBLk5/juUUpDs/pj7l7w3J7tj3+WStR5sk458dOaIXSOYsBYACPDnABNIDkU0XAzNcB+USIL6BwSudLCnG9EKCe0G6EcvkJZmTmLZ2T/6FtRrnOlfXWMPLXszlL/MyfsXPp8ISeuxCcA2A6oKUB6te+9rXThz70oQLoH/zgB9Ovf/3r1ZebErzYA1g79vBqfvIcJ8Vu1NDdts2xWRdj5HOubBSz57PHH/laJ9uXT/zqW0ouezmhcZy3GQTkpOaEfs973jPddttt0wc+8IHp97///fSd73xn+t73vjc9/PDD5bTG1tM3Ae19ecrwy5zbFsZ0b0085fHXa+jPaXPt5sTatc2hc99XPP1C7dTqyAldF0+jmr9uzlf9uN3wyQTgEuDYcmrffffd5euBb3/726e//vWv089//vPpM5/5zPTkk0+uTmYTNQ9oC9CAWNkmQF6X/0huLiOd8yybsz5qflba6rEdC2l1TkaaSXtqAlhASvNUdM5pzJeW+DNNfnkJGR079L2/BvSvfOUrp3vuuWf68Ic/PP34xz+evvrVr07f//73y58mU497bb64Qnxy4euqjLk48OuXWlgDNuiQO7HMvSQbP7DfZRuBYSTr5bcut5HdKN7I78hnz879b8l7/sjP+jO244P9E0v4Zh/dU+TYiUuwRgx4+Fid0CjuqhHcJPxLTCRGUJ9qENyxyZPYW97ylumNb3xj+QWCb37zmxOdE5y/X+bzasDMQvDh97C9WFiDRVAPHrr4hzovgwv4wzVuu7S5dtvG2af+XgBNwoAXYNMAGCfx7373u+mnP/1pAdadd965enRHIdGnoYfdS1/60ukjH/nI9N73vrf8EgH32dxz//a3v135xs6OPZ05wMUPICc2PFpNC/MM/3Btc1J0rbVtj1/rndf5XgAtmAEUJzVFBGQA8lOf+tT06le/enrHO94xvelNb5pe9rKXlUd5AJATG1t0aZzCAJ/+5je/eXrwwQenX/3qV+V++xe/+EU5xXkFIAaxiMMvWOKHJsjL5PIP5Nnlb0Ox33XbtU/X2MtzFG8k6/kb8XftbxQL2V4ADSAT1N4CANrLf4964pHdz372s/IrNvy103e+852l86ELdujhg2LkvdOrXvWqcgHw+2b8TuOPfvSj0n/yk58UPWNiYyEdI7MhUy5vG9qz9ULcxhe6PX/rZNvGWedvlMecWCObfcXaC6BJlg6I6AKcExdw0+D/6U9/Ko/rfvjDH06f/exnyzPqt73tbeUNIjrYcfLSOHUBOqDnXppf+7r33nunD37wg+VW5itf+cr0jW98o7wR9V6bJybYJJiLs6v8Rw9MPf5JyrUPn6N8moA2CenIQUsGaAUiTzoAIXNOZ6hPJvAv4Pirp5/+9KfLHxR517veNd13333l1gRwYsPFYAPovqHk2Tb+3vrWt05/+MMfps997nPTF7/4xQJsfjWMR4g0bOg04tKdF+YF+uH6WktCdpHbEUBbCGmCgLH8LIonMDxA5i2CpyJz+MwBJgCmMaYDfh65AViAz2M+Ht1xS8KjPO61X/e6100vetGLysmMPbnox/j44beFeUry5S9/uYAcnqAlP3WxZY6c5nqkhTnjx8h+JBuFmmOHzRy7uXlY45F9LTPHFsUfnf1CLqZcE5Q99NEdvpUdAXQKWgnI09j5NhRbOsmSKNTEATMykkXGUxFOXd74AWwAzgcygBtdLggWnqe3Fwo+Ww3/czag5WvfPHJdWr8C1McaSQugFch0rivmgKDmK9+G4kMA6y95nJqc6IBUYPM8+bvf/W751wMAm0d5nObY0ZJy1ZIrHXBjmzqOtSnCLX4c2m6L1E5NdVSTkewkCadfx9AjJ7QCAzGXJ1W2C1r79BYECqC5/wXUPJPmHtmnHNwzc1Fwitt8PIhP7rtpXBjMjZNj7Q5FzeFQ8S5qnKyj+yllzUdOaBgKpfLyhEY2t+EHINo9TZkDYG4l/K8BPKd+3/veV4DMH+4D5OahHTZeAIAcENM9qc2/zrmeb7Oek9huE+e86I7qMZLtY33HTmgTqGkdXHnNXzcXyFLAaAeQ/NnU97///eXbePwpKHjIaYwBMs3vbnDrAZ8nKA9c/vNkPOPm+9bw6hyZ0/VRHC0/zl0F3EP3MxewAjTCbPWm1/LUrR1jCw8KcNNX8hhz6t5xxx3lHyfed/lRHd/j4GkFjVNWMPvEQlBzW8FzZr7n8ctf/nL62te+NvEBC9/5wIZHdjwKNHbmn2PioGO+zGm1zhXu/J9z/Zl/K/Jcny1fp8XLNTjONSfPsbmqB19ZAbQbKlgAoSccijkXoFD5gI3uUwr4gNFbBBIwhpT74HsvfzDCIzne6L3hDW8oj9qwMw+ASXx43EvTeJPHp4R8jM5pzKeFf/zjH4uNetxyoIe999HEJS/ydPHwbDmWh152+OipW8vwT9O/FJ4yxtu09JF28KnTtq3nb52fuXY9v9QQn+wHTbwxplZZY2Xoy0fHDk+dgpJesj0+QUeNJAkGpfvBCqfqvZdB/PrXv768yQPMvOHjQkDPeC6WGC6AWwy+2MT3pvk+B6cy//nWWw4W5KLwYzdP/NDJC71RMyZUP1L9MN+mbauv755dj6/deaDWMutN3s5Ha8j15/jYLQdCO44dSzcJZiIABwBhw+nJ7cRHP/rRQvnoGjlARibQoMTSlo/HOYn5MhLftON05tRFjh5Ax96LB4pMubmQA75puS7lSZHTaa4b2mv668kXfrsCWee2RpvrXrg3qXXkhFYRhXrsvOUkHTp2k71tAGD8zd97L5/QvPEDlDRuS/SJDoDEBiB/6Utfmr797W8XXd7o0bBThzlPRASv9lB56NjIyXyMqSwpel5Y6kFpSVOGDTF7TbuevMefa9fzd5b41o+cNl2nerWt/O4J7cJRZLPqpoOaz5yN5Z4XOwAIOAAS4DMR5vABJzrK+U2VL3zhC+VUxhfgp3l7we0JfgUydjy6w69AxqdxsK3zd95bg/K01Z9UmfOeL/SWdrwC1Mt9QsreUXfoulqm3DGUvgI0ThUybjXl0pYOPBJDJ0GbIIGPnEdtgJHvOfObKfzCLE8t4AlkgAvgfT6NjacntxoUwLmAxjdjc8nYjqVFqfEDH9nRp+u3YbJad0uGrzltrt2cWIe0YV0AmnpaVyh7uknLuuR49X8Kk4lD5gTIxlw9xnVHRgewJAvQuKUgSbpvDnm0xvc06F//+tfL/TF2fjMPO05kfUF5ROeF4ElPbhTEJyB5xcPDzuZakuKv1fApcPGhn6Ssxxi+CmmDT3X1b1znSWvdlB1yTB70el/JwbVtkmuulT2h6Vt7qPulDDvG2ssvDp7z4Rhay+GV/ySLgCZl7KLgsRiDMIYH6OBJsaEhI1H02HC/Scf8L3/5y/T5z3++fAeaX6niDZ6gxw5/gJVmHBfN3DF66NNtyGyADbAS37yl6hC3B+j07ViKbxpzfJIXjViMncPThnEdH54NvV6ba9fzN+K38jU+1DXjo5WzPCl6XOzM6dRGGVTf8tCHJ6bgK4Oyx8iUa4+duqtbDg0R2pLHuHagXlL02HQTY6wfHrXxx2V4RsziOL0BFWOSdcFS7LLDp6WcObZcONyW4A+/Lhw5uZhPqxjo1A19865zwAdxiEkurQsHG3zQ9FPHOGtzL3DzZW3W2hqas2tjro51yrkHjT7TTl/bUn1JtWe+AnQyHUM1IhHGdnWcS+FTGPVZEJ0PUvyzBsg90QAFDf1cfBazKFz+YQypfMHr6UksTgZOe74Dopy4jqX6SIp/4tOMJXUdyLxwyJv7/myuHx7j89DMWUrO1iHBXtcnAexYO3Rt+LWnD+Xb0PTL2HkBdDIU1JRgJJNNHXj6gAIWmie1b+ooSmvj8YtNnub4sTj4skCM68aJzwVi0fHDnI/QuWDwj4wukC1s7Yu5a+mNATL9b3/7W3m1YYxv8shGDHydl+aBQN429xLqnnABowuVp01N3Tf5+D1pTbSH2s332Ak9Cqhxi+oQ6iLQYyEs3t/v87EbPPUolsUxPrI6jjGyOIwBE/pQgIwdvyX+8Y9/vPz5MXToxJHqW59J1UeHlrrkiR9ebT7xiU+U75Ag994//TDGl35q2VmbkyutlS8XK3zqTKcO7lG9xqyfPvXb8l2CbvgD+4ynP+mRE1qmwTOGjpLXGqMHWAGXNibA3P9Dx6kGn8KgT8MmddGnaDTGNnToNCgfqVtcePgD2PxGOT5P0jIuY2Pz9/m4OInFWsjBN0DESztscn6SfPZpa62oZXZyz1efrD1jT2/X7Z4xFwf4yI4MuznNWkrTx+qERuhmGTgTzUXgABk9gZQBHEPRwz7HAEFbZAAQcNPS1jG6mR96+uQi8eSngOiyAfhzk/SLPzq25LVJMwcpNvqHR7x1LW3X6aZ8nV3KHefa4MnHb9bcesJnnHuCnh25PtBjDKUlVacInvsBz576qVOP8ZlxrK+xav2cF0Cnoo5MWpkUY8YCOpN1jIyxuiSEjVSZcqjFZNxraZc6XjCCGSDz9VFOzmz1GlLWG2OjHfEd+wqjnLX18sP3SNaLPZdvThnTccrMWZmvMM4z797Fj27qY2ONGBOjbimvZczdT/3iQx5y+YzrduSEbiXXM+7x6wDosYBN9Ec66ceCyGOxbIZFh/KGjb/TwV9mUh9qr/PMufrwiGFnTnG5YHhV4D6ai4g58W3oZ6vnKTvJGL+5nsy79otMfWSMWQsHCfnXoKntDz1v1Sx59dj56h46E0ZoTz7jHj/1dA6vVcjU3WaMXzfNMZRNoQEq5Nx+8GcQ7r///hXQATngg9r1VefA5tLxTac5xgYwc4skGBjzm+k+l05/2idvV2NycQ2OocQEpDTzluYroTxsqIm+dpXfXD/kRYOak7zaZ82fdULjpHZUB3KOnkWWdxJqbH1C6YCVzmNBdNggTlCeGwtggCeotWvlIqCRGU8KDx8AA7807qdzri50n4012IzJ3PzlSZF5ETK2BlJ4Z6VZO3MnR3nkKN98lW18QmNQO9VZixpAG+i6pk1LT5n+0HHM/SxAZg5o2VB4dMY2Ti38CER9Kk+qb3j4UJc4fCcFYHDBwCcmPuHZ1GeeY+UnpeRHTHODOiYeY1o9hscFSUOWcvzh96w0crNtOj5yQmOchjk/6ULxK0jqGCa9bQx9AlRs2UQ2Cwq46G4ScmRQeLRN4hEjuy/lnMrGJ558dfGfY+a7buRPJzad9ZILcW31nBqwfnWk6p9FSo71XsEz9xwXQLNoGkYs1rkGvUXWQVKvJdNfS5a2o7E+Uod83aT8JBJdTk8aMdEzNlRgp696jA9jQgEO9+oJYMbIsm7aZDx5dQxz1wdU3fo01ZaY3LOrW1P1oObAGL3MExndePpBd9Om7ab6tZ725gHNmqAPj4YuY+eF+dwPanLslkPFTRemvo4N6Hxf1DhQWg1WFpe55Xrg093YXo76lhoHO3lSfbR8omNM9bSD2pFlzoxzY/GdnTW2Gnb6T3/qKnMOTZvkH3JsXq47Y6/Lzxqubjk0VsDcALWs5is/LZr51AsXYPBpynOdrbzTp+O0ybExpPhLm9p/2iJLYAJgcjRfAYwO3dsK7NRhfJGa9ZGyNsfQXLd81786oWsBcx2pnI7knQXqIs05cwIEmbdjdBOAaeNYf1L42jOGb2duU18qH9rST5/mpB63N44Ft37TLmNchLFrtGa5JutR6zDf+oRuBchgpzGuF5YbfRJA12sljico4+wt3ZpXz82bfPVFvowFrx/YoGP3NgR/F7lZE9ZYj1138uGtAF0LmGdzXtPUOa2xuSeQycVcGSuTaoNs1NKHNkmxdY7vWl/fyddGWoMYMOuztjP/OpZxLhq1Dq7LetR85atbDhlJNYZnIVN+1sbkmxud41q2bk2uPX1gI9+1M5cnrfXgZ/3Uk/pLDvqUYuNTDn1io1361Oai0Fxnrr1en7WQXvIlGYabx5iXtU0aNpwoFF5fm9htq9PaPBeRvpKXY3Tqedq1xi19T886H+aetN6WQB37d0WMo2+p/BGtY450z7OMdYInurdem6yHWq5OaAsr3cSBOtiQhFT+eaXb1kCg5SGAD55I0BinT8fS81qnfeZtTa3fprFW99AtAwquY8fQq3kjqIc1qWsGn9pwqnBa230Fy825mmtY1601r3HWmmtnLaHHAK2hShq5WcxrmTpXC7UWda2cJ6AZw69P76WOY7SIMWlL23pL0Tlyy6GxNJ3AcyPht3RS/6KOWbddsEJp3kNnbahZ1s26qANFvrT/r0DWhnF2teQ5l65OaBWgNGhuhGP1dHC1UdafQGbs3NpZE2omWFPmWKr+QrevADW0Y706oVuuUHRDWvKrkSeAk3oy83VVm2C12NYx+eou9HgFrBMSx9Lk1ZYF0N7fuUko+bgJXqu5QdIM1tI/LR75ZW6tsWtIih6d9QNYawNNH6zL+qHXa7WNsdCvZT0fNX+O3RybfeWYNci1yafW1JacGWeTb+3dl9UtRyrjQKfyWzxl54XWm2kx5EPtrIkiCWb4Fu28rPci5Jl7IyZzj+o1rm45VNKBis51VvOdn1Vq/lLyZAyYfXAPD7AKWCl6jqV1HbBd2u4rQO3pdb3hjVr3hG4Z6Uza0jmLvMzXMdQOWD2JGQte5VLXVhdZ/kJ3X4GsPWOavJoi657QaYyiTb7zs07Nt0UBMXy6Y8EMzSaIpSlbxrutgHsCpd7OHRsNft26J3Rv43TeclY7Pytzc5WSFwD2u8bMXRdjmzWQwk8f6i10fxXIejvOvXKsbHVCm5IC5+eduh4p62EMoP1NcXgJWsbOkzL2BMdmafurAHtEt/45HkUtgObNke/4GfOlGv5YC5vea+hrwyb7Em0CPbtd8F0slGYejIlvDuTEKSwIzVM71rquqStdp9+Tn9S+5/ci8tlP9gb80d1PayhGpdQAHeTdE1pjC8Zcx/BquXqHoOSRuRiTnLywGNtT7nih57cCYg9a42B1D61SLjMBgaE60tTd95iYJg91TNz6BHae+dc5p/2+c1/8768C9b4eOaFTmGPSqef7S7HteQRAAQz1ZYp86dqZP3O683a0hXvWK5D7x9j5sRM6hTlOYCT/UAtPEApg8wDEjpGl3LzJsx5js7TzVwH3TZorOHZCp1I9TkCkk0OMje0J7GlMjoyzmTc2yKDao8dYnbRbxme/ArlvjOu9LICuN5tlpeE2y6wDbGM70iUfwCmQBTZ8F4a9a1mXxzr5KJdFdpgKzNmjAmgfewliQeHphjyBw1wdKI9P0tZxa9n4tKUPeM6NpR5z/tKnLf1jY/7KpebmXJr28jalJ7HdNEbqzY03x26ODbnOtct15ph906eP5np7nHaMj9xy1MLenGAG7On0+IIWeY5znqcw47wIen4X/sWsQOIsx73VFkAjrEGaxo6hNQh7jnv8+kpL3wCXObcTfLhDZww/vzzf873wr54KiMXED+MjJzQMO6VROV8C5Cs7SQmN5QkMgB0LbmLXF8FJYi62Z78C4gIq9sRb0hy7qiMntEwoynRPZI2dp+42Y/1AAa3AhfLdCmPWQNZum1iL7vmtgPsNdcxqGNcYTJ0jJ7QGWYZUbslTd5MxwKVBvZ0Q1Jm4vkieju7SlgrUFagxszqhU7EGcUuWjhJ0AtarKPUYI88ujxj6caytFH6Omc9tu/IzN/5i166A+yJ+UksZPMe13grQKGTXiPtX+Bp6miqH0ni8wilK95/o6E8bqN9+u2J15ae+k4ctTZoyxy07ZdKRvTo1nWNT+ziPc+rZWju8TWq97ZozFtgYvVdCV310aczrR8YrQG+ajI5ZoAkQgA4PMFsYeIIcytykNo236F3dFdgEL6mzEaDTwPLCS74AhwJen1gIdily+tKWCowqkNhKrMlPXvpZC2gdaKQjAQqfk5ouiP1HlNpI8+VB3kKXCtQVEHNQDr+cj3TR2wrQrZMVJ3TAzP2xpzMUfYAOtZOQCdbJLfOlAlagxohzKXqOpfDWAholG4Z2AcocINM4mW2cxugYTDvlC10qsK4CYAYM2cQSc2XypJcYOMnbCE7cURPQ6NH1AfXNIvYJaucjv7uUmdMufR7S19z859odem0J1l3FXgGaImQhuGVIYPYCehFAecIBpaWvnu02/F372yb2prpzczyk3SjWCGAju1F95tqNfI5kG/0jFZI6dGKjpBfZxa+AeBN7zll5juv5WkCncW988cu7rPA0KpB4E7jyoHZl0OGbQo1RpNX3w1e4y8+lArutQA3UxGGOjZq8IaA1kGoolb/QpQL7qEDijHFvnrK1txx1oum0li3zpQL7qMA2mNvqhK6T9V2x1CuFubzaZpvkattdz+fmMtduTv5zY82x69mwlz3ZnDVpg8/EiWOfrkH9jKOOry6+GDvf+oQ2mauV1oW9Wuuwq3VTTx/14vMIOC8DmsfHNOueckFcFJ77UU5olVPQ4m0jT91lvFRglxUQm9L0vTqhEWZPJcYaq1PLl/lSgUNUIHFovMTksRNaA5RzzPHuXKrDhS4VOGQFxJ/U2MzLCc3AjjDHqaxM3kKXCpxWBcAoTaw6X91y9BLToJbroOYv86UCp1mBS9xK5JeKeMeZ354juQRvD+D1ItKmll2N8/NSj0Pm6VMKHs/5pIP48nlk59ynHfWtr780Yt7lHloHAA3HCHWkIrIcM++1TfV69gv/dCpw2vtWx2/Nkydu4cnv3kPXJdUgjWudZb5UYFcVqPHmXP/OpfJX99AIaqG8mo9xi6fThS4V2EUFaow571Firk5oE0DZLk8qX4fyF7pUYJcVEGf4dCzmpClzDO1+l6N2hPLSlgqcZgXAZL4prO+hkR+75cgroJX8AvRWVRberivQw9k6fK5+p9BHJ6Cex3bMddpL1isk5di0+KlzyPG6Auwyl7mx5trNzX3X8fbhD592Htn52I41g00aT+R4tAfl8R1tdUIzycR0Bp+mrOZfkS4/lwrsvgI11moMOs/IqzeFLSGK6VSd5KWzZbxUYB8VEG/SjCEPSjvypjCF3DY4bzlI3jJeKrDrCghQ/eacsfhULl192y4NEDqXystPEnWy0KUC+6gA2LPjXywmmFOOTveERpiGzGm1gyvc5edSgd1WQJwJ4vQ+4h0BdBo5bhkj6/G1W+hSgbkVaGELHp1DNlutu/q2HQIe1/F4RKUc4wS+j1C49dh1M+62fufa9eLs2l8vzkn5h8xzH7H0mViC5x/6BGvIwCUNMMPz26Ho8u/+0n71lGNdcQ2OXo7X2S3ypQInqQBYE2+OnePXsXR1yyED6vgkiSy2SwVOUoEeBsVnjx4DtElgsLwptBoLPY0KCOqkCWRuNXJOjtfKYOIY6rymtawoLj+WCuywAmIMlzk2BLwEc+qtTmiVa9pyWOss86UC+6gA2LPjP8c5T4wWQKsoVRlKSwN16scn9fyK5fJzXxXIPdlXjNPyW2OpnotB88v5CtAYIfBRCcr5iIRvOKEDzzGU/88N329AQfMxikH3RXMxu4qBz7PSDlnLQ66ZGrs26y0FQ+CMOZ3HdE899VSh4pRcGeODjk7RrRehU/nOpfAd33XXXUcuABIhSOqUyYY/tG2pG3Nb2T58tnLYF2+07n3FPIRf9sVDkHi5zpe//OUlBUCNHoemf7SRub/prV3aHrmHVgDF0LmGJcrlHwQi6Mc+9rGiR2J+H5XAzDNZ7fZFuTpbjfxzDanD+uit1rNp6SaPk2KO7SFrlfme5jjr5DgpOHr44YcLkK+77rrp+uuvL7jzDoHc0c8Ob3XLUQvSuTI/weGTm0cffbSA9oYbblgFIrAvIwTeto02Vr8tnz1gouuFVtuxpp5P11vbrJv3Lqx1dr081tldFHlijTWBA/EDkKmPOshz79wra7gCNIo2lDyhdaQhfILxPwkZP/PMMyXg008/PQFoQW8AfW5C/YizpTsCS09GzrxctRp59uzQd90t2x6PWHPs+Pj2amvUCRxZLyl1cHzjjTcWTHH/jC77BdiRqyPVbvVarZIKzi20fOaAFTAL+ttuu60EIJhXE7JtGxdEz250geQ//MyY+OqBhfX07PCR602fo3Ev1sgG2WhtvXqs83nW5ayL09dmvaF2ZByUNMBc6+ADnpgrevxAkMjnarCQKDvWITaOudcBGN60I8NX76Ueea9lYrXOyB/xem106o/sXF/Pb4s/ijXyZ31rn/B7dj2b2kdrPsdnz6blf1MeOLOlf8ZiKPniA1ldG/TglRPa2wQ2hCC8dLYAlBuGnsGeeOIJ8yqUwPRdtlx87XfO5pp77esszcnxPOQ5qtlob0ZrQ9a6XRR34JOxlDgAvXx9lAlgBYTcE9PXvXyOEh0tEFnPdnQRjBbfO2mx6fm0AOtybcl7+Y9y7NmM6jHKfxRr5HOUR69WI3/rZKO96a1htG7icfsB2LkrIGeoh3L5MwYwATSd2wcAjQH8XkLwezKC9ho+ewsZFbv1imEMfLYacUaxdp0//npr2PUrTGu98siht7ZePbDt5Y5slH8vFna9vSFWL94oR/xh50lNbAFNvHLLgRBFhPmYBID3ngQQtJcsjnuNGL2FjBY5KugI7L1Y5M/6tm2j/C1yy2evjuiONrC3tnX17/mE35Oxtl4bvWLn+6favudzlD971rOz/taFvPAlPgqgcUDBUbrlllsmHpfQSLS3EesSqhe2yXzOBbLOrwuv9XqbWuud5pwce3myZ721UUc3uM4fO3qr9WK1dJPX84fOSJY+Nh0LaNbnWvhMxNzLPTQABrgoeGVIewmlbiuZnt0ItCbV8mc+LVlv89Dt5bEu/1YceOTYy3OU49x19/Ig/97azLNlO7Jp6csb5T9n3aP6U99evMyfuHQP4zLmyObTvptvvnl66KGHpgcffHAFbu6jW8m6oenchUPh92TItWecbWSTetuMe7HW+ejZjXLs2RBrjh02I7veps+N19rrdXVCPjePnu9RHbUhJtilPnzwwlcxbrrppukSH2YweMUrXjE9/vjj02OPPVaUADMPtXUuxWGODZCUwvQ2YrT49HGa43XrO2RuvToeMofTiuXapeYBZsEYlPd84Peee+6Zbr/99iuP7TidYXBP9sgjj0xPPvnkxLNlAM19dG5wjg2w0P1VoN7M/UU6m55Zf9aAMe/zuM2g33nnndMdd9xRDmTA/X83PTtn+Gm65gAAAABJRU5ErkJggg==;" parent="1" vertex="1">
          <mxGeometry x="-10.5" y="180" width="100" height="86" as="geometry" />
        </mxCell>
        <mxCell id="FF8iImPlqfr5JP4Mh2Vb-37" style="rounded=0;orthogonalLoop=1;jettySize=auto;html=1;exitX=0;exitY=0.5;exitDx=0;exitDy=0;exitPerimeter=0;endArrow=none;endFill=0;entryX=0;entryY=0.5;entryDx=0;entryDy=0;entryPerimeter=0;" parent="1" source="FF8iImPlqfr5JP4Mh2Vb-33" target="FF8iImPlqfr5JP4Mh2Vb-36" edge="1">
          <mxGeometry relative="1" as="geometry">
            <mxPoint x="356" y="343" as="targetPoint" />
          </mxGeometry>
        </mxCell>
        <mxCell id="FF8iImPlqfr5JP4Mh2Vb-38" style="edgeStyle=none;rounded=0;orthogonalLoop=1;jettySize=auto;html=1;exitX=1;exitY=0.5;exitDx=0;exitDy=0;exitPerimeter=0;endArrow=none;endFill=0;" parent="1" edge="1">
          <mxGeometry relative="1" as="geometry">
            <mxPoint x="-95" y="723" as="sourcePoint" />
            <mxPoint x="256" y="723" as="targetPoint" />
            <Array as="points">
              <mxPoint x="46" y="723" />
              <mxPoint x="86" y="723" />
            </Array>
          </mxGeometry>
        </mxCell>
        <mxCell id="FF8iImPlqfr5JP4Mh2Vb-33" value="" style="line;strokeWidth=1;direction=south;html=1;" parent="1" vertex="1">
          <mxGeometry x="-100" y="343" width="10" height="380" as="geometry" />
        </mxCell>
        <mxCell id="FF8iImPlqfr5JP4Mh2Vb-36" value="" style="line;strokeWidth=1;direction=south;html=1;" parent="1" vertex="1">
          <mxGeometry x="250" y="343" width="10" height="380" as="geometry" />
        </mxCell>
        <mxCell id="FF8iImPlqfr5JP4Mh2Vb-41" style="edgeStyle=none;rounded=0;orthogonalLoop=1;jettySize=auto;html=1;endArrow=classic;endFill=1;" parent="1" source="FF8iImPlqfr5JP4Mh2Vb-39" edge="1">
          <mxGeometry relative="1" as="geometry">
            <mxPoint x="-10.5" y="493" as="targetPoint" />
          </mxGeometry>
        </mxCell>
        <mxCell id="FF8iImPlqfr5JP4Mh2Vb-39" value="" style="shape=image;verticalLabelPosition=bottom;labelBackgroundColor=#ffffff;verticalAlign=top;aspect=fixed;imageAspect=0;image=data:image/png,iVBORw0KGgoAAAANSUhEUgAAAIAAAAB0CAYAAABNPTrEAAAKuWlDQ1BJQ0MgUHJvZmlsZQAASImVlgdQk9kWx+/3pTda6FJCb4L0KiX0AEqvohKSkIQSY0JQsCuLCq4FFRFQFF2kKLgqRdaCWLCwCDawLsgioKxiAQsq+wFL2H1v3nvzzszJ/c3Jueeec+e7M38AKIApFKbCcgCkCdJFYX6etJjYOBquD+CBCuLqgMBkiYX0kJAggNjM+k8bewCgyfWu+WStf///v5o8myNmAQCFIJzIFrPSED6D+AuWUJQOAKoEieutSBdOcjPCiiKkQYTvTTJ3mgcnOXGav07lRIR5AYBGpsKTmUwRFwCyBhKnZbC4SB3yfIQtBWy+AOHJft1YPCYb4eMIz01LWzbJ3QgbJ/6tDvcfNROlNZlMrpSnZ5kyvDdfLExlZv6f1/G/LS1VMnOGIeJknsg/DFllkDvrTlkWKGVB4sLgGeazp/KnmCfxj5xhltgrbobZTO9A6d7UhUEznMT3ZUjrpDMiZpgj9gmfYdGyMOlZSSIv+gwzRbPnSlIipXEehyGtn8WLiJ7hDH7UwhkWp4QHzuZ4SeMiSZi0f47Az3P2XF/p7Gniv83LZ0j3pvMi/KWzM2f75wjoszXFMdLe2Bxvn9mcSGm+MN1TepYwNUSaz0n1k8bFGeHSvenIBzm7N0R6h8nMgJAZBv4gBNBAFLJaAwcA0jkr0yeH8FomzBTxubx0Gh15XRwaQ8CymEuztrRyAmDyrU5/Cu+7p94gpIyfjXG/AGBbisCh2RhfH4CmBgCoW2ZjBo0AyFUBcBHDkogypmPoyR8MIAJZoAjUgBbQA8bAHOnMHrgAD+ADAkAwiACxYAlgAR5IAyKwAqwGG0AOyAM7wV5QBErBEVABToBToAGcA5fANXALdID74DHoAf3gFRgBY2AcgiAcRIGokBqkDRlAZpA15Ai5QT5QEBQGxUIJEBcSQBJoNbQJyoPyoSLoMFQJ/QydhS5BN6BO6CHUCw1B76AvMAomw4qwJmwIz4MdYTocCEfAi2EuvBzOgrPh7XAhXAYfh+vhS/At+D7cA7+CR1EARUIpo3RQ5ihHlBcqGBWHSkKJUGtRuagCVBmqBtWEakXdRfWghlGf0Vg0FU1Dm6Nd0P7oSDQLvRy9Fr0NXYSuQNejr6DvonvRI+jvGApGA2OGccYwMDEYLmYFJgdTgCnH1GGuYu5j+jFjWCxWGWuEdcD6Y2OxydhV2G3YA9habDO2E9uHHcXhcGo4M5wrLhjHxKXjcnD7ccdxF3F3cP24T3gSXhtvjffFx+EF+I34AnwV/gL+Dn4AP06QIxgQnAnBBDYhk7CDcJTQRLhN6CeME+WJRkRXYgQxmbiBWEisIV4lPiG+J5FIuiQnUiiJT1pPKiSdJF0n9ZI+kxXIpmQvcjxZQt5OPkZuJj8kv6dQKIYUD0ocJZ2ynVJJuUx5RvkkQ5WxkGHIsGXWyRTL1MvckXktS5A1kKXLLpHNki2QPS17W3ZYjiBnKOclx5RbK1csd1auS25UnipvJR8snya/Tb5K/ob8oAJOwVDBR4GtkK1wROGyQh8VRdWjelFZ1E3Uo9Sr1H5FrKKRIkMxWTFP8YRiu+KIkoKSrVKU0kqlYqXzSj3KKGVDZYZyqvIO5VPKD5S/qGiq0FU4KltValTuqHxUnaPqocpRzVWtVb2v+kWNpuajlqK2S61B7ak6Wt1UPVR9hfpB9avqw3MU57jMYc3JnXNqziMNWMNUI0xjlcYRjTaNUU0tTT9NoeZ+zcuaw1rKWh5ayVp7tC5oDWlTtd20+dp7tC9qv6Qp0ei0VFoh7QptREdDx19HonNYp11nXNdIN1J3o26t7lM9op6jXpLeHr0WvRF9bf0F+qv1q/UfGRAMHA14BvsMWg0+GhoZRhtuNmwwHDRSNWIYZRlVGz0xphi7Gy83LjO+Z4I1cTRJMTlg0mEKm9qZ8kyLTW+bwWb2ZnyzA2adczFzneYK5pbN7TInm9PNM8yrzXstlC2CLDZaNFi8nqc/L27ernmt875b2lmmWh61fGylYBVgtdGqyeqdtak1y7rY+p4NxcbXZp1No81bWzNbju1B2247qt0Cu812LXbf7B3sRfY19kMO+g4JDiUOXY6KjiGO2xyvO2GcPJ3WOZ1z+uxs75zufMr5jYu5S4pLlcvgfKP5nPlH5/e56royXQ+79rjR3BLcDrn1uOu4M93L3J976HmwPco9Bugm9GT6cfprT0tPkWed50cvZ681Xs3eKG8/71zvdh8Fn0ifIp9nvrq+XN9q3xE/O79Vfs3+GP9A/13+XQxNBotRyRgJcAhYE3AlkBwYHlgU+DzINEgU1LQAXhCwYPeCJwsNFgoWNgSDYEbw7uCnIUYhy0N+CcWGhoQWh74IswpbHdYaTg1fGl4VPhbhGbEj4nGkcaQksiVKNio+qjLqY7R3dH50T8y8mDUxt2LVY/mxjXG4uKi48rjRRT6L9i7qj7eLz4l/sNho8crFN5aoL0ldcn6p7FLm0tMJmITohKqEr8xgZhlzNJGRWJI4wvJi7WO9Ynuw97CHOK6cfM5AkmtSftIg15W7mzvEc+cV8Ib5Xvwi/ttk/+TS5I8pwSnHUiZSo1Nr0/BpCWlnBQqCFMGVZVrLVi7rFJoJc4Q9y52X710+IgoUlYsh8WJxY7oiIoraJMaSHyS9GW4ZxRmfVkStOL1SfqVgZVumaebWzIEs36yfVqFXsVa1rNZZvWF17xr6msNrobWJa1vW6a3LXte/3m99xQbihpQNv2603Ji/8cOm6E1N2ZrZ67P7fvD7oTpHJkeU07XZZXPpFvQW/pb2rTZb92/9nsvOvZlnmVeQ93Uba9vNH61+LPxxYnvS9vYd9jsO7sTuFOx8sMt9V0W+fH5Wft/uBbvr99D25O75sHfp3hsFtgWl+4j7JPt6CoMKG/fr79+5/2sRr+h+sWdxbYlGydaSjwfYB+4c9DhYU6pZmlf65RD/UPdhv8P1ZYZlBUewRzKOvDgadbT1J8efKsvVy/PKvx0THOupCKu4UulQWVmlUbWjGq6WVA8djz/eccL7RGONec3hWuXavJPgpOTky58Tfn5wKvBUy2nH0zVnDM6U1FHrcuuh+sz6kQZeQ09jbGPn2YCzLU0uTXW/WPxy7JzOueLzSud3XCBeyL4wcTHr4mizsHn4EvdSX8vSlseXYy7fuxJ6pf1q4NXr13yvXW6lt1687nr93A3nG2dvOt5suGV/q77Nrq3uV7tf69rt2+tvO9xu7HDqaOqc33nhjvudS3e97167x7h36/7C+50PIh90d8V39XSzuwcfpj58+yjj0fjj9U8wT3Kfyj0teKbxrOw3k99qe+x7zvd697Y9D3/+uI/V9+p38e9f+7NfUF4UDGgPVA5aD54b8h3qeLnoZf8r4avx4Zw/5P8oeW38+swbjzdtIzEj/W9FbyfebXuv9v7YB9sPLaMho8/G0sbGP+Z+UvtU8dnxc+uX6C8D4yu+4r4WfjP51vQ98PuTibSJCSFTxJySAijE4aQkAN4dA4ASi2iHDgCIi6a19JRB0/p/isB/4mm9PWX2AFR4AETqABC6HoDiv6SsbDMAIUg8wgPANjZS/8vESTbW07VIiH7BFExMvEd0I84EgG9dExPjDRMT38qRZh8B0Dw2reEnTRfRVnb6k9RV8WY9+Bf7E460Dg57Gv5lAAABnWlUWHRYTUw6Y29tLmFkb2JlLnhtcAAAAAAAPHg6eG1wbWV0YSB4bWxuczp4PSJhZG9iZTpuczptZXRhLyIgeDp4bXB0az0iWE1QIENvcmUgNS40LjAiPgogICA8cmRmOlJERiB4bWxuczpyZGY9Imh0dHA6Ly93d3cudzMub3JnLzE5OTkvMDIvMjItcmRmLXN5bnRheC1ucyMiPgogICAgICA8cmRmOkRlc2NyaXB0aW9uIHJkZjphYm91dD0iIgogICAgICAgICAgICB4bWxuczpleGlmPSJodHRwOi8vbnMuYWRvYmUuY29tL2V4aWYvMS4wLyI+CiAgICAgICAgIDxleGlmOlBpeGVsWERpbWVuc2lvbj4xMjg8L2V4aWY6UGl4ZWxYRGltZW5zaW9uPgogICAgICAgICA8ZXhpZjpQaXhlbFlEaW1lbnNpb24+MTE2PC9leGlmOlBpeGVsWURpbWVuc2lvbj4KICAgICAgPC9yZGY6RGVzY3JpcHRpb24+CiAgIDwvcmRmOlJERj4KPC94OnhtcG1ldGE+Cuv1aeQAABpSSURBVHgB7V0JdBzVlb3qbrXU2i3Jtiwv8u7YllewDTjmGDyOWQYCGTJZWBIgZIghE8jkwAkBAgEmCxOSzAmBgCEJIYHgxEwSkhOz2Ngs3rGxzeJFXmVL1mLJWlqt7pY095ZUUnWrtRkpVFn9zqmu9f/69d7777//lt8JDQ0NLYjDoMWAa9B+efzDDQzEGWCQM0KcAeIMMMgxMMg/Py4B4gwwyDEwyD8/LgHiDDDIMTDIPz8uAeIMMMgxMMg/Py4B4gwwyDEwyD8/LgHiDDDIMTDIPz8uAeIMMMgxMMg/3+OU7w8Ggzh69ChaWlqQkZGBIUOGIDEx0TbNb2pqwsmTJ1FbWwu1dezYsUhOTrZN+7pqiGMYYM+ePfjmN78JITo9PR3jxo3DkiVLcO655yI3N7er7xvw61VVVXhj/Xqs43bgwAE0+P2oravDvffcg2UXXTTg7/+oL0hwSkjYLx59FPfff7/R+yUFEhISEAqHjf1tt92GG2+8EWlpaR8VH70uHwqF8Jtf/xpPPPkkKisr4WJ71C6Xy2Uw6Zy5c/HHP/6x1/V9XA86hgE+e9VVeOedd2KK/ZqaGgwbPhx33HEHli1bhpycnE74FHGam5shwoXJOJIkOtcmSODm9ngMAnq41/DidrsNBjMe4I/qOHXqFNasWYPv3v0dnKioRFZmplHGfMbc5w4dipUrV2LEiBHmJVvuHcEAlFKYNGkSUlNSIghixagIWldfj/PPPx833HADFi9ebBC6pKQE2qQ/HD9+3OitGqcDrFNjdWNjIxQVqx6cmpoKDwkvHSM7O9sYaiZMmIBRo0ZhzJgx2LFjB5566im8vnYtkpKSDAaxtsF67GNbn3jiCcybN8962XbHjtABjh07ZihXaSRQV6DemknCbdy4EXs+/BDTpk1FINCIktJSNLHH13Fc9nN8Vi8WuCmqE7hFg6SDCRLnmezhSVTmpHRWUckrLy+Hz+frkhHNsnqnGM7u4AgGKCURews+EisQCGDbtnfai0hfEPRGK4+eWaguSaBqKnuqx+v1ttfb3UE9pdFxMq7dwREMYPbaviDTJHpfynT17OnUFeaQFODwYnfoLAPt3mKHtM/DIUl6gt3BEQxgd006FpE13AznzMTu4AgGkBauqZmTQMaqiRMn2r7JjmAA9abLLrsMDVTInAIuDgGaLdgdHMEAQqKmZJzD2R2f7e2rrKjACloJZTiyMziCAX76yI/x0ksvOaJHWYn9++eew4urVlkv2e7Y1pZATf9kdbv6mmuQwTHVaaD2l9FwJOPUlClTbNl8W0sAOVl+TieQTMBOBNkP5Cu4kz4KmZ/tCLZlAPWetez9u3ft6tbmbkekWtskW8DOnTuxbt0662XbHNuWAWSCfe2111BP+73TQX6K559/3jBR2+1bbMsA1dXV2PD2244V/1ZCayiQN/LQoUPWy7Y4ti0DyPd/jN6007HD2wKzlkZoCltBZXD//v2Wq/Y4tK15beuWLUg+DVu63LlmkIcVxWIkbb21KJpuYbMu7c06RNDe1mO2QUqgpIDqMWwa5o2PeW9fBti6tdeu1+bmFgRJ+EBTCxZOH4+C3GwketwGspt4TwakQCiMKn8DPjxYjNpAEHWhplbU854BZA5Bkpuau8+L6eMKkJuehpQkr0H4VF8Smki8QGMIDdxe3LQTHoaSpHg9vM/YgtbiRh2xfpr5nuLiYiNIpbcu5Vj19Pc12zJAMXuLlKfuQDMFLyN4Jo4egc8smotZExmJS4KlR8UGqjd3mJFbGUL1BhqDBjF1nJToQQqJbIBBzVaKqv5YXr1vfOFS7Dt6HH97+11s21OE6tr6HturuAK12U5gWwYoKytDWjfGHyEyNdmLz15wLq65ZDHDuNIoMfQ5PXRFBYC1ESFASWClh489vxVYRw9dOmtIBkbm5+HsaVPw6sZtWPHXtThWUdXt0KCZTZwBesn+PfYTUu6y8+bixis/xdg9S6gYr7c0t4p3I+SL4jkSOoib7Otj3H5LM+tuCyJ1uUlsN8QIVyw9H8NzsnHPij+gqqa+yzG+r3pDZLsH5iwaOwPzltOoVTF4XfWWYLgJhZPG4earLokkPt+TlD4EvsLF8M3+FBJHTwejPHm1R3bqoYUsz3pUn+pV/XqPCWKEBbOn4QsXnsdhoGuU2kn5M9vedWvNJz6mfV5eXkxtXkwRbGrGf33+EqP3mc2T4E8cVgDX5HMAXzqCLQlwDS1AMs8TPBzbrbLeLNSbPcupvOpRfapX9es9ep/eK/B6E/GZpQtROKEgZrv1jCSA3aa1tmUABYGYUzAhz4RT/kZ88cL5mDV1onnJ2Cckp8NNAjHUF3v+sgobf3Afdjz1OBJILM8IPmtSKqJU705UPuTyYscv/9eo98Brq4336H16rwnDh2ZTJ1mAitrY1ksplHEGMLHVw378uHFGEkf0Y40U/zdfuSxynFUvTc0kMdKw/5V/4OT+vag5fBjF69dg/X/fB1faECQkyqHU16GA9XpTjPIbH7oLVUeKjXp3rXgMx7ZuNt6n95rSRdPRhTOnorFNT4huexaHNbsNA7aVAFOnTbNM3VpRKfE/IS8bI0fmReKWvdudOcxI9Kgu2o/Cz1+LnKnTKLo9qNr9LspOVMCVkhFZppdnKle2Zy9OHSvB3Ju+huxJU+D2pWDn048bc3q91ypdcnKHYOG0SZ2klxJPlLFkNwaw7TTwE1OndiKRGCAj1UcjjweNTPFqB4p9V3IqqkpLULp1AwKVZag5VmyI6QTaEgJHDiNhnAI0+zoO0HroTUZ18V4wlww7n1mB+hMnWE0CwnW1qONxZjYZSzMNtk2gaOAxORkoorSwEjuJ9onsuAQwcNSrn9GjRxtBlbH0gK4qSNA8m1PAqn170WSJHwz567sq0qvrISZ5MHGQ4v8Qmhrb4hJJ8Kb6upjllRNgBTFudk4upNjaDf5pEkCEFCK0Vx6faVcXQsx7VuQodWv+/PlYxZAqMyVMZcqqatHInD71wghQDySSWRkDCCM/KzUvv802oF4aVS6ikuiTVptCWv5ItAQbqUeYhiI+x6mfd0R+e8/vKNmCcloFrb1f36fM5aHDhhkuYeHBCnrWVA71rI51zdzMe9Yy/XUcial+qFUfp7QoLZaghiv5UiZdP6956dzRubJ5RWBZ+sQMMpFqs4KInp+fD6V6maD6jlVU0+zqR3ZWGmndgcimmnLk5E3AsFlno2z7Vs25DGbwEPGZ48ehpWSPWU2f9i0NdcimPqJ6mhrY+9luDv4YNudsI3k0XFoUUV+IPoddew92il+UeVrpZYpyiv5WRTwlM4JYuBNu5CtQWLlpODJ8B7yndHglsGZlZXWqP6IRfTjpdwZ47733DM6V/Vx5dvooMcAQZtum8EO1mTZ+c99VezMYTvXyyy9DfgGzRyUR/2s3b8e/X7SYDNCWyMl3NNdWAUNDmHHdDdge8KNi17tIokSYc9Ot8CXQdtCgkKzOvV9MpU09rzPweqAW6TQxn/W127H9yZ+jsbICuTNmGe9BU6j1vXy/wOVKQHllDSrrGjCa32lCM5n80ksvxdm9yBRWhxBor2RWbcpiFgiXOj9B3UPDSX8MKf0eFKrGCqE9GT0kCdQb9u3bZzwvX7ni/0eOHAn5AeQ+FaevZS7+6tWr2xlAhBo2JBOvPPY9AyntP1TEvOPnwJ01HKEGPxqJKDetdz5mDAf3b0NTTVn7o9aDwKlalJ8oR964MWTYGP2B5l935nB4J56NBvbOpnAISSRuImcCTdUnEDywnZRpZR5ZAVe/uQXLf/hERCDLKZZ7kqniyhVUDx/KtQPUQY4cOWIcy+qZQgkwmino+uZYziezzWICrXGgDmFKCPPe6ez7nQHMRsgDp6FAIJGnpVQOMSJGvV6NF4cr976n9X6UGXzxxRejhvH1ZuZuaWkV/vbovZhXOJH1dPRcDwngnrgACUlMyJBmHgoiVPwBwtWlPO3sWRTB33rur6gpKcPCL34avpwss/kReymWnqw8JI7izER6gHwCjQ1o2r8JYcv7w7RRfPm7P8Guog6JpbyAu7lczC233BJRp/VEBBV+5C5W+jm7OtvLb+E2kesiSH8Q3kRwJZv0JDmtdfd03O8MoLFfHyJimdJAjVB+n7jbJGJPDbPef/utt3DjV75CegYNJKgXTB0/Br+44yZkZ6ZHmnd4z5VKw487kVr6SbSEKZFiEN+sv/LIcVQfP4GC2dPhoXexKxATJHi8cKdmo0Wiv55DDiWdCTratPND3P6z38AvXYEg79806g8ruVSMxu6+ghhD4l6SUh1Kw6ckoDqP0s50/lGh3xlACzGI69U4ibb+AiVY3HXXXa3GF/aGULgZX1xyLr51w1WMCYgS3WQCAwz6dBDJ2pY6auopKclQCpcJ1cfLkZU/1DyNsWe9pt5pIb4erK1vwLceWYENu/cZPVTMP4xa/+OPP47Zc+bEqKvvl0R4dTDVrWGkPwJLKCf7FySuNI73J/HVwk9fcQUeePDBdutgoseFJ/78Gn7w5PMM5kikZOggpNEzDQLFJr7qC9f5sY3lVVbb0V17UX74mBFJpPuxgfWp3ijiiwF/8ttVWL31/XbxLBH+4EMP9Rvx1R6JfhFe+O0P4qvOfpcAqnQg4e9//zseJCOUMGBUCKkJhDB/ylgs/7eLMGPKeAzNpk+ANJIQ0FDRFUhhK35/P8oPHEUi4wkS+OwnFs3r6vGI6zLrChQe9sGho3jkmRfx+s69yEppneaOpCPrgQceMJaxiyhowxPHMYBweJiOnt8+8wxWvfgitH6Q5tFejvkzJxZg3ozJWDR7KiaOGYmMtMi1fCRCrSwhJggyKijAMTtVQSVRPdukl7GeUNs9jcGV1bUc7z/A6g078db7e431h8Icr9U7L77kEnz1q19FQUGBWdzWe0cygDCqcVCzildffRVPr1iBgzz2cWqWmpqCJM7HXZwFzJw6DpPpOJo1qQA51EfyqeW7eU/RxmnpUqA6i/NW0dGMk1U1hsIVoGZ/ilPFksqT2EntfvN7RThQdpIzjACqOd+vpzlYi1NpZbIrrrzSWM2sN2sR2YUrbMUAFUyp/uH3v48tDAnXXPjGm2/GhYsXI4dGJNkWugJpy+u5Uuezv/k1Xl//BoI8F5HV42U9q2psgivMvk9iGkB9ISvDhzQGgfoYyGGCpIOfK4tVU6Hz19L4oukeh4bmROoXjBbO9UnX8BjMpzUFZxQW4svXX4/LL7+827m7Wb8d9/ZiAM6Bf/Tww3jhhRdo7AijcMnFyKWmfu0Vl2Lp0qXtClZ3iJQBqaioCDu2b8c2JpdIa5bxZS+XmtVUyspIsXSE6PuazUyaPNlQurQk7ayZMzGHWv142jC0lqDTwVYMIGQePFGJTW+8jlUv/AEbNm7GxPnnYcrceZhGif2ft93eZ3zLGHXvvffi97/7nTH+m+O5aVqOrlBMIckhq51MuPJXfIfTz2uuvdawz0c/7/Rz2zHA5soGTEhNhIu2+/vvuw+r/vQnpGdmIHPUONz9jVtwCZWsvsDDP/oRfvzII8b6AsYg0s1QYq1Xyp6YQRbIJu61POysWbOsj5wRx/1uB/goWGlgZk8lx+sajteyI3z729/GuQsXouLIUSz80nJsOVRiWBl7+w7pErIdmOv5am4uEd+bzTS9ZjOKR7OMc845x/bLvfQWL9bn3Hffffd91gsf57G8u7W08GUmupDhdRs28LFjx+JPf/4zDu/cikP7PoQ7LRPzZha2O4e6aq+cTRL9SsrsznauXq7NOvZH12n1ai5atCj6tqPPbSUBlJc3MysZ+SkdmvlZZ52FW269FSeK9iKDvoSy9DzcwtmBTM7dgfwRu3fv7tH3IOLmxlhdPLpuSRFNOXt6b3Q5u5/bigGELDEBp+rtIGXtzjvvRP7Y8TiwZQP+cPuXsO7NN3Hd7Xdi8+bNhsJm9mLtNXav4cISN/H/A9T7rSDnjOwHVsihZv/U009Dq3tbQc9aQRJCPo4TfVi32FrersdRXhS7NhP42SM/xvLly2l/aUDe5GkY98kL8KXlX8e8C5ZiFKODKhgEOnziFDz90//BGEYFZY4cDw8thibIJS1jjYJL1nDpme68kgq6uPa667Cey7rIHW0OIWKuM2HFEhMn2ttOAlgbZz3WX8PcyqHARX/88fffxUsPfw+oq2GmDrB5B02yGzfhYPlJhgUOZVDo+zj4zga4Kd4Fkgxynmi1sQSKF513B5oCTp8+Hf8RNdRoChktGbqrxwn3HCMBFAihHqzZgSRBZkbQiKLZ/teV7YFeW198jsa71umbrINmZI3m9YW02ikeQUEbvQHZ9hXCpTUBTDCGGNZ1JoFjJICQLqvc1VdfbVj6ZA+op1gPsrfKwifxLMONiKRz7c2ern1fg1FURu+TGdqs50wivPktjpEAZoO1l0n2F489ZozPCkL9kP8QYoIcMwqjUhTRr371K0NJ1L3TiZ9TGS1QWcUFq7qbJprvduLekQwgRGt2oLBxbfITRMN+BptKKsSheww4agjo/lPid08HA3EGOB2snUFl4gxwBhHzdD5l0DCAlpAr4QyuNhg5jQvS8bS5mhlGCR36gqwHxfUMyWaZMx0cqwRGE8YkVV2oGaUNYRQxokfOJVmVXUwhK+cagevKm1DN+x6LqTlI51NxHRM/LRUmEStHG0J4u7IJ9Qz8NMFPHtlSGUDyyQZkM10sN5mJGqzMWtZ81il7xzKACB4g8UTQKvbqQ3XssQEGcrRp/iWBsDFTMFcM6w+CJDP8u6wxjI2V+rfRABLpHxiW7Eaez4MRZIY0hqpn0otp9WX0x3sHsg5HMoBi/PbXBVHOfZmITlFt9HT+eEgUgbtt35/I07SyhfV66LBSOqCYsKShCce5uRIaMcTrMhiigN7MkdwSHcAJjmIAifd3qwMoYm8PUb5riBa5SY8IkOXOf7IcTcEGLhXQmu6VlJoWkQUUUaCLE5VNzc5B6Fir6znA8LLq4iNomXl2ewkrjauDkkbNHH5CyEly47xcH4ZSMtgZHKMEnmRvf7mkDu+d4h8+k/Lm+B6NXFnsgswOLtm7S14g43Yzl3ZLzyuAh8u09AU8ScnI5iIQzUwyFYRZ7543XkNj3akuqxEvijE1HK06WoftJwMGs3ZZ4GO+4QgGOEKN/C/sheWNXD2jG4Sp51eXHsMrP3vIiB1wJSbRPxBG9sjRmHTe+XTrdu6NGim6MvMq33/CeUvg4kphEv8ehpof3rEZm1Y+C39VBct13RjdknTYxBjHt8r9qKe+YkfojBGbtVI9f10Z8/3ZraziNrqZyhze8LsV2Lvubyg9eNBw//ppwx971gIs+Nz1GDF5enSRtvMEw20cDkdSs4Hh5S5mDk27YBljEPx487e/RO2JUnhTfNjw7OM4sPltXMBFI8Yy9qBN0MSsX7rIPg4JKVQQ5+cwbd1mYHsG+IDTOSl53RFfOFVPrykrgb+uHlmTZmD42ELkz1iAKecsQM6wDKOXhxv9qDxcZCwfpzJh5viPOOeTSMsdzjgDribKc4E7OQWle95juriPPb8Fcy//HMYsWIbda15Fya43UHvsIKqOH4KfadutWkjrUGMUjvGju0cpxaake41ZQoxHPrZLtgsLj8bE2hP12M8e1Fvw+5VCHaQXsIMoGRn06qW5cGDrW3j2G9cjgzl8TXIhUyx/ZcVKDJswCVv/73msfvgeJopmGcxSw3Cyr7/wCjJGjmV+fohu5w4R7klMwJAsL93FlozkbhqolmSyzL8MT0MOp412AltFBcdCjJ+ELPa3rQUU64Goa17Owz00zgQCCgxpvdlIzXzP+n/g9UcfhJuRQc3M6/NxxY9/veshFMw6y/D353GICCMJFQeLDCUviQs6FG1aj+ScAiRmjGh/i+rOHZrEYJS+Cc9szgqmZHptNzXs21e0o+GfdzAhzYsPTjUac35zjt/d26UI+nwuEigBdfWtHCBpcGjHNpw8fgx5k6Zh1LwlGDV7ETLGTTeIr/paKOonLb0WaaMKcXTb6ziyaTUqj/LfRU5xSLG8MDXVwwUpXO3lLLe6PJR2MZnf4aNOYTew/RBgIuz5QzWG1S96zm/ej97X1GjdnY6hw+dzM0TMherqjmsqk5vrZf5BIp8NMuo38t6oUT4uWNXISOJW8a9ZwdBcJpSmiAGi3xj7PMwHFw9LwdRM6hg2BPuxZBdIumJ0OgopQpPJAbIBnA6kp3fkG5jlG9vG9gDn7VYQw3SVP2h9Ltax2qdeP5QMd+mINNsSX223/RBgIliEn0/L2miaWA/VB3GwXn8SxX/g4jQrcgJnlui8Vw9OpDIWCnVwkHp3s1b66rhkFHTzfRpOrMpk5xojr4jwjEREPplnLEX+eG7yD9gZHMMAQqKXBCyguM5P8TCDqBmH/SHson5QSyJqmtgb+7+HBAmZ/xjWRpkWrQMQxQGMODOgJwZQ4qgIr3dPYNsKs5KQQR0hmeO92mR3cBQDmMiUk2UItWpts4ck45S0/JpGgyHq6d8XUUQ/4T96uFCvjgXWy9FPmPdk+aNcMOoVcRMpJUZz0YgJqV6MJvGdCI5kgGhEZ9ILp+FhPnyGxfAU3cOl6SEcSQ2impZEGZKSOH3L5JjcwJ7JmaABfnJHIq+r94ppNMXTsYcckMlVQbJZL118xjUNQRlkuPwhiRjOYSiNvVybEzx+0fiynjtmFmBtdF+O5TUMkgH0B5L6u5962gca21b3DPCa9AIxRz0ZRT4B0hle7pPIKJo1yGwjInt5w+nEjoW3M54BYn10/FoHBuytona0M340QBiIM8AAIdYp1cYZwCmUGqB2xhlggBDrlGrjDOAUSg1QO+MMMECIdUq1cQZwCqUGqJ1xBhggxDql2jgDOIVSA9TOOAMMEGKdUm2cAZxCqQFqZ5wBBgixTqk2zgBOodQAtTPOAAOEWKdUG2cAp1BqgNoZZ4ABQqxTqo0zgFMoNUDtjDPAACHWKdXGGcAplBqgdv4/E5FaPbeMU1AAAAAASUVORK5CYII=;" parent="1" vertex="1">
          <mxGeometry x="-54" y="363" width="87" height="80" as="geometry" />
        </mxCell>
        <mxCell id="FF8iImPlqfr5JP4Mh2Vb-42" value="&lt;b&gt;&lt;font style=&quot;font-size: 14px&quot;&gt;GitHub&lt;br&gt;Code&lt;br&gt;&lt;/font&gt;&lt;/b&gt;" style="text;html=1;strokeColor=none;fillColor=none;align=center;verticalAlign=middle;whiteSpace=wrap;rounded=0;" parent="1" vertex="1">
          <mxGeometry x="46" y="393" width="40" height="20" as="geometry" />
        </mxCell>
        <mxCell id="FF8iImPlqfr5JP4Mh2Vb-43" value="&lt;b&gt;&lt;font style=&quot;font-size: 14px&quot;&gt;SSM&amp;nbsp;&lt;br&gt;Send&lt;br&gt;Command&lt;br&gt;&lt;/font&gt;&lt;/b&gt;" style="text;html=1;strokeColor=none;fillColor=none;align=center;verticalAlign=middle;whiteSpace=wrap;rounded=0;" parent="1" vertex="1">
          <mxGeometry x="56" y="526" width="40" height="20" as="geometry" />
        </mxCell>
        <mxCell id="FF8iImPlqfr5JP4Mh2Vb-49" style="edgeStyle=none;rounded=0;orthogonalLoop=1;jettySize=auto;html=1;endArrow=classic;endFill=1;" parent="1" source="FF8iImPlqfr5JP4Mh2Vb-47" edge="1">
          <mxGeometry relative="1" as="geometry">
            <mxPoint x="126" y="669" as="targetPoint" />
          </mxGeometry>
        </mxCell>
        <mxCell id="FF8iImPlqfr5JP4Mh2Vb-47" value="&lt;b style=&quot;white-space: normal&quot;&gt;&lt;font style=&quot;font-size: 14px&quot;&gt;Status&lt;/font&gt;&lt;/b&gt;" style="rhombus;whiteSpace=wrap;html=1;strokeWidth=1;" parent="1" vertex="1">
          <mxGeometry x="-58.5" y="629" width="80" height="80" as="geometry" />
        </mxCell>
        <mxCell id="FF8iImPlqfr5JP4Mh2Vb-50" value="&lt;b&gt;&lt;font style=&quot;font-size: 14px&quot;&gt;Failed&lt;br&gt;&lt;/font&gt;&lt;/b&gt;" style="text;html=1;strokeColor=none;fillColor=none;align=center;verticalAlign=middle;whiteSpace=wrap;rounded=0;" parent="1" vertex="1">
          <mxGeometry x="56" y="643" width="40" height="20" as="geometry" />
        </mxCell>
        <mxCell id="FF8iImPlqfr5JP4Mh2Vb-51" value="&lt;b&gt;&lt;font style=&quot;font-size: 14px&quot;&gt;SNS Email&lt;br&gt;&lt;/font&gt;&lt;/b&gt;" style="text;html=1;strokeColor=none;fillColor=none;align=center;verticalAlign=middle;whiteSpace=wrap;rounded=0;" parent="1" vertex="1">
          <mxGeometry x="153" y="593" width="40" height="20" as="geometry" />
        </mxCell>
      </root>
    </mxGraphModel>
  </diagram>
  <diagram id="a5MwEjz5455pL72yCBEC" name="Page-2">
    <mxGraphModel dx="1388" dy="662" grid="1" gridSize="10" guides="1" tooltips="1" connect="1" arrows="1" fold="1" page="1" pageScale="1" pageWidth="5000" pageHeight="10000" math="0" shadow="0">
      <root>
        <mxCell id="itOuN0mKVWH0vXaiAye3-0" />
        <mxCell id="itOuN0mKVWH0vXaiAye3-1" parent="itOuN0mKVWH0vXaiAye3-0" />
        <mxCell id="GFlZ5m6I7uKBJ6M-TDIo-0" value="" style="rounded=0;whiteSpace=wrap;html=1;" vertex="1" parent="itOuN0mKVWH0vXaiAye3-1">
          <mxGeometry x="3640" y="1120" width="440" height="120" as="geometry" />
        </mxCell>
        <mxCell id="GFlZ5m6I7uKBJ6M-TDIo-1" value="" style="outlineConnect=0;dashed=0;verticalLabelPosition=bottom;verticalAlign=top;align=center;html=1;shape=mxgraph.aws3.ec2;fillColor=#F58534;gradientColor=none;" vertex="1" parent="itOuN0mKVWH0vXaiAye3-1">
          <mxGeometry x="3670" y="1133" width="70" height="77" as="geometry" />
        </mxCell>
        <mxCell id="GFlZ5m6I7uKBJ6M-TDIo-7" style="edgeStyle=orthogonalEdgeStyle;rounded=0;orthogonalLoop=1;jettySize=auto;html=1;" edge="1" parent="itOuN0mKVWH0vXaiAye3-1" source="GFlZ5m6I7uKBJ6M-TDIo-5">
          <mxGeometry relative="1" as="geometry">
            <mxPoint x="3720" y="1110.0000000000002" as="targetPoint" />
          </mxGeometry>
        </mxCell>
        <mxCell id="GFlZ5m6I7uKBJ6M-TDIo-5" value="" style="outlineConnect=0;dashed=0;verticalLabelPosition=bottom;verticalAlign=top;align=center;html=1;shape=mxgraph.aws3.codebuild;fillColor=#759C3E;gradientColor=none;" vertex="1" parent="itOuN0mKVWH0vXaiAye3-1">
          <mxGeometry x="3680" y="960" width="80" height="80" as="geometry" />
        </mxCell>
        <mxCell id="GFlZ5m6I7uKBJ6M-TDIo-9" style="edgeStyle=orthogonalEdgeStyle;rounded=0;orthogonalLoop=1;jettySize=auto;html=1;" edge="1" parent="itOuN0mKVWH0vXaiAye3-1" source="GFlZ5m6I7uKBJ6M-TDIo-8">
          <mxGeometry relative="1" as="geometry">
            <mxPoint x="3998.25" y="1110.0000000000002" as="targetPoint" />
          </mxGeometry>
        </mxCell>
        <mxCell id="GFlZ5m6I7uKBJ6M-TDIo-13" style="edgeStyle=orthogonalEdgeStyle;rounded=0;orthogonalLoop=1;jettySize=auto;html=1;" edge="1" parent="itOuN0mKVWH0vXaiAye3-1" source="GFlZ5m6I7uKBJ6M-TDIo-8" target="GFlZ5m6I7uKBJ6M-TDIo-10">
          <mxGeometry relative="1" as="geometry" />
        </mxCell>
        <mxCell id="GFlZ5m6I7uKBJ6M-TDIo-8" value="" style="outlineConnect=0;dashed=0;verticalLabelPosition=bottom;verticalAlign=top;align=center;html=1;shape=mxgraph.aws3.efs_share;fillColor=#E05243;gradientColor=none;" vertex="1" parent="itOuN0mKVWH0vXaiAye3-1">
          <mxGeometry x="3956.5" y="960" width="83.5" height="80" as="geometry" />
        </mxCell>
        <mxCell id="GFlZ5m6I7uKBJ6M-TDIo-10" value="" style="outlineConnect=0;fontColor=#232F3E;gradientColor=#60A337;gradientDirection=north;fillColor=#277116;strokeColor=#ffffff;dashed=0;verticalLabelPosition=bottom;verticalAlign=top;align=center;html=1;fontSize=12;fontStyle=0;aspect=fixed;shape=mxgraph.aws4.resourceIcon;resIcon=mxgraph.aws4.backup;" vertex="1" parent="itOuN0mKVWH0vXaiAye3-1">
          <mxGeometry x="4120" y="1120" width="70" height="70" as="geometry" />
        </mxCell>
        <mxCell id="GFlZ5m6I7uKBJ6M-TDIo-29" style="edgeStyle=orthogonalEdgeStyle;rounded=0;orthogonalLoop=1;jettySize=auto;html=1;" edge="1" parent="itOuN0mKVWH0vXaiAye3-1" source="GFlZ5m6I7uKBJ6M-TDIo-14" target="GFlZ5m6I7uKBJ6M-TDIo-24">
          <mxGeometry relative="1" as="geometry">
            <Array as="points">
              <mxPoint x="3570" y="1410" />
              <mxPoint x="3994" y="1410" />
            </Array>
          </mxGeometry>
        </mxCell>
        <mxCell id="GFlZ5m6I7uKBJ6M-TDIo-60" style="edgeStyle=orthogonalEdgeStyle;rounded=0;orthogonalLoop=1;jettySize=auto;html=1;" edge="1" parent="itOuN0mKVWH0vXaiAye3-1" source="GFlZ5m6I7uKBJ6M-TDIo-14">
          <mxGeometry relative="1" as="geometry">
            <mxPoint x="3750" y="1370" as="targetPoint" />
            <Array as="points">
              <mxPoint x="3750" y="1370" />
            </Array>
          </mxGeometry>
        </mxCell>
        <mxCell id="GFlZ5m6I7uKBJ6M-TDIo-14" value="" style="outlineConnect=0;dashed=0;verticalLabelPosition=bottom;verticalAlign=top;align=center;html=1;shape=mxgraph.aws3.dynamo_db;fillColor=#2E73B8;gradientColor=none;" vertex="1" parent="itOuN0mKVWH0vXaiAye3-1">
          <mxGeometry x="3520" y="1310" width="70" height="70" as="geometry" />
        </mxCell>
        <mxCell id="GFlZ5m6I7uKBJ6M-TDIo-23" style="edgeStyle=orthogonalEdgeStyle;rounded=0;orthogonalLoop=1;jettySize=auto;html=1;entryX=0.821;entryY=1.018;entryDx=0;entryDy=0;entryPerimeter=0;" edge="1" parent="itOuN0mKVWH0vXaiAye3-1" source="GFlZ5m6I7uKBJ6M-TDIo-16" target="GFlZ5m6I7uKBJ6M-TDIo-0">
          <mxGeometry relative="1" as="geometry">
            <Array as="points">
              <mxPoint x="3790" y="1280" />
              <mxPoint x="4001" y="1280" />
            </Array>
          </mxGeometry>
        </mxCell>
        <mxCell id="GFlZ5m6I7uKBJ6M-TDIo-33" style="edgeStyle=orthogonalEdgeStyle;rounded=0;orthogonalLoop=1;jettySize=auto;html=1;" edge="1" parent="itOuN0mKVWH0vXaiAye3-1" source="GFlZ5m6I7uKBJ6M-TDIo-16">
          <mxGeometry relative="1" as="geometry">
            <mxPoint x="3970" y="1410" as="targetPoint" />
            <Array as="points">
              <mxPoint x="3970" y="1370" />
            </Array>
          </mxGeometry>
        </mxCell>
        <mxCell id="GFlZ5m6I7uKBJ6M-TDIo-16" value="" style="outlineConnect=0;dashed=0;verticalLabelPosition=bottom;verticalAlign=top;align=center;html=1;shape=mxgraph.aws3.run_command;fillColor=#759C3E;gradientColor=none;" vertex="1" parent="itOuN0mKVWH0vXaiAye3-1">
          <mxGeometry x="3760" y="1319" width="70" height="71" as="geometry" />
        </mxCell>
        <mxCell id="GFlZ5m6I7uKBJ6M-TDIo-34" style="edgeStyle=orthogonalEdgeStyle;rounded=0;orthogonalLoop=1;jettySize=auto;html=1;" edge="1" parent="itOuN0mKVWH0vXaiAye3-1" source="GFlZ5m6I7uKBJ6M-TDIo-18">
          <mxGeometry relative="1" as="geometry">
            <mxPoint x="3840" y="1335.0000000000002" as="targetPoint" />
          </mxGeometry>
        </mxCell>
        <mxCell id="GFlZ5m6I7uKBJ6M-TDIo-18" value="" style="verticalLabelPosition=bottom;html=1;verticalAlign=top;align=center;strokeColor=none;fillColor=#00BEF2;shape=mxgraph.azure.github_code;pointerEvents=1;" vertex="1" parent="itOuN0mKVWH0vXaiAye3-1">
          <mxGeometry x="4000" y="1300" width="67" height="70" as="geometry" />
        </mxCell>
        <mxCell id="GFlZ5m6I7uKBJ6M-TDIo-24" value="" style="outlineConnect=0;fontColor=#232F3E;gradientColor=#F34482;gradientDirection=north;fillColor=#BC1356;strokeColor=#ffffff;dashed=0;verticalLabelPosition=bottom;verticalAlign=top;align=center;html=1;fontSize=12;fontStyle=0;aspect=fixed;shape=mxgraph.aws4.resourceIcon;resIcon=mxgraph.aws4.sns;" vertex="1" parent="itOuN0mKVWH0vXaiAye3-1">
          <mxGeometry x="3959.25" y="1440" width="70" height="70" as="geometry" />
        </mxCell>
        <mxCell id="GFlZ5m6I7uKBJ6M-TDIo-26" value="" style="outlineConnect=0;dashed=0;verticalLabelPosition=bottom;verticalAlign=top;align=center;html=1;shape=mxgraph.aws3.ec2;fillColor=#F58534;gradientColor=none;" vertex="1" parent="itOuN0mKVWH0vXaiAye3-1">
          <mxGeometry x="3770" y="1133" width="70" height="77" as="geometry" />
        </mxCell>
        <mxCell id="GFlZ5m6I7uKBJ6M-TDIo-27" value="" style="outlineConnect=0;dashed=0;verticalLabelPosition=bottom;verticalAlign=top;align=center;html=1;shape=mxgraph.aws3.ec2;fillColor=#F58534;gradientColor=none;" vertex="1" parent="itOuN0mKVWH0vXaiAye3-1">
          <mxGeometry x="3880" y="1133" width="70" height="77" as="geometry" />
        </mxCell>
        <mxCell id="GFlZ5m6I7uKBJ6M-TDIo-28" value="" style="outlineConnect=0;dashed=0;verticalLabelPosition=bottom;verticalAlign=top;align=center;html=1;shape=mxgraph.aws3.ec2;fillColor=#F58534;gradientColor=none;" vertex="1" parent="itOuN0mKVWH0vXaiAye3-1">
          <mxGeometry x="3980" y="1133" width="70" height="77" as="geometry" />
        </mxCell>
        <mxCell id="GFlZ5m6I7uKBJ6M-TDIo-32" value="" style="outlineConnect=0;dashed=0;verticalLabelPosition=bottom;verticalAlign=top;align=center;html=1;shape=mxgraph.aws3.ms_sql_instance;fillColor=#2E73B8;gradientColor=none;" vertex="1" parent="itOuN0mKVWH0vXaiAye3-1">
          <mxGeometry x="3320" y="1440" width="70" height="70" as="geometry" />
        </mxCell>
        <mxCell id="GFlZ5m6I7uKBJ6M-TDIo-39" style="edgeStyle=orthogonalEdgeStyle;rounded=0;orthogonalLoop=1;jettySize=auto;html=1;" edge="1" parent="itOuN0mKVWH0vXaiAye3-1" source="GFlZ5m6I7uKBJ6M-TDIo-37">
          <mxGeometry relative="1" as="geometry">
            <mxPoint x="3400" y="1470" as="targetPoint" />
          </mxGeometry>
        </mxCell>
        <mxCell id="GFlZ5m6I7uKBJ6M-TDIo-62" style="edgeStyle=orthogonalEdgeStyle;rounded=0;orthogonalLoop=1;jettySize=auto;html=1;" edge="1" parent="itOuN0mKVWH0vXaiAye3-1" source="GFlZ5m6I7uKBJ6M-TDIo-37">
          <mxGeometry relative="1" as="geometry">
            <mxPoint x="3950" y="1470" as="targetPoint" />
          </mxGeometry>
        </mxCell>
        <mxCell id="GFlZ5m6I7uKBJ6M-TDIo-73" style="edgeStyle=orthogonalEdgeStyle;rounded=0;orthogonalLoop=1;jettySize=auto;html=1;" edge="1" parent="itOuN0mKVWH0vXaiAye3-1" source="GFlZ5m6I7uKBJ6M-TDIo-37">
          <mxGeometry relative="1" as="geometry">
            <mxPoint x="3380" y="1360" as="targetPoint" />
            <Array as="points">
              <mxPoint x="3500" y="1460" />
              <mxPoint x="3500" y="1360" />
            </Array>
          </mxGeometry>
        </mxCell>
        <mxCell id="GFlZ5m6I7uKBJ6M-TDIo-37" value="GTTIMPORTUTILITY" style="outlineConnect=0;fontColor=#232F3E;gradientColor=none;strokeColor=#232F3E;fillColor=#ffffff;dashed=0;verticalLabelPosition=bottom;verticalAlign=top;align=center;html=1;fontSize=12;fontStyle=0;aspect=fixed;shape=mxgraph.aws4.resourceIcon;resIcon=mxgraph.aws4.lambda_function;" vertex="1" parent="itOuN0mKVWH0vXaiAye3-1">
          <mxGeometry x="3525" y="1440" width="60" height="60" as="geometry" />
        </mxCell>
        <mxCell id="GFlZ5m6I7uKBJ6M-TDIo-38" style="edgeStyle=orthogonalEdgeStyle;rounded=0;orthogonalLoop=1;jettySize=auto;html=1;" edge="1" parent="itOuN0mKVWH0vXaiAye3-1" source="GFlZ5m6I7uKBJ6M-TDIo-14" target="GFlZ5m6I7uKBJ6M-TDIo-37">
          <mxGeometry relative="1" as="geometry">
            <mxPoint x="3555" y="1470" as="targetPoint" />
            <mxPoint x="3555" y="1390" as="sourcePoint" />
          </mxGeometry>
        </mxCell>
        <mxCell id="GFlZ5m6I7uKBJ6M-TDIo-40" value="Send docker anomaly status&amp;nbsp;" style="text;html=1;strokeColor=none;fillColor=none;align=center;verticalAlign=middle;whiteSpace=wrap;rounded=0;" vertex="1" parent="itOuN0mKVWH0vXaiAye3-1">
          <mxGeometry x="3720" y="1410" width="170" height="20" as="geometry" />
        </mxCell>
        <mxCell id="GFlZ5m6I7uKBJ6M-TDIo-41" value="EC2 CLUSTERS&lt;br&gt;" style="text;html=1;strokeColor=none;fillColor=none;align=center;verticalAlign=middle;whiteSpace=wrap;rounded=0;" vertex="1" parent="itOuN0mKVWH0vXaiAye3-1">
          <mxGeometry x="3785" y="1100" width="105" height="20" as="geometry" />
        </mxCell>
        <mxCell id="GFlZ5m6I7uKBJ6M-TDIo-42" value="DYNAMODB" style="text;html=1;strokeColor=none;fillColor=none;align=center;verticalAlign=middle;whiteSpace=wrap;rounded=0;" vertex="1" parent="itOuN0mKVWH0vXaiAye3-1">
          <mxGeometry x="3502.5" y="1290" width="105" height="20" as="geometry" />
        </mxCell>
        <mxCell id="GFlZ5m6I7uKBJ6M-TDIo-43" value="SSM RUN COMMAND" style="text;html=1;strokeColor=none;fillColor=none;align=center;verticalAlign=middle;whiteSpace=wrap;rounded=0;" vertex="1" parent="itOuN0mKVWH0vXaiAye3-1">
          <mxGeometry x="3797.5" y="1299" width="125" height="20" as="geometry" />
        </mxCell>
        <mxCell id="GFlZ5m6I7uKBJ6M-TDIo-44" value="GIT" style="text;html=1;strokeColor=none;fillColor=none;align=center;verticalAlign=middle;whiteSpace=wrap;rounded=0;" vertex="1" parent="itOuN0mKVWH0vXaiAye3-1">
          <mxGeometry x="3981" y="1370" width="105" height="20" as="geometry" />
        </mxCell>
        <mxCell id="GFlZ5m6I7uKBJ6M-TDIo-45" value="AWS EFS BACKUP" style="text;html=1;strokeColor=none;fillColor=none;align=center;verticalAlign=middle;whiteSpace=wrap;rounded=0;" vertex="1" parent="itOuN0mKVWH0vXaiAye3-1">
          <mxGeometry x="4110" y="1190" width="120" height="20" as="geometry" />
        </mxCell>
        <mxCell id="GFlZ5m6I7uKBJ6M-TDIo-46" value="EFS FILESYSTEM" style="text;html=1;strokeColor=none;fillColor=none;align=center;verticalAlign=middle;whiteSpace=wrap;rounded=0;" vertex="1" parent="itOuN0mKVWH0vXaiAye3-1">
          <mxGeometry x="3950" y="940" width="105" height="20" as="geometry" />
        </mxCell>
        <mxCell id="GFlZ5m6I7uKBJ6M-TDIo-47" value="CODE BUILD" style="text;html=1;strokeColor=none;fillColor=none;align=center;verticalAlign=middle;whiteSpace=wrap;rounded=0;" vertex="1" parent="itOuN0mKVWH0vXaiAye3-1">
          <mxGeometry x="3667.5" y="940" width="105" height="20" as="geometry" />
        </mxCell>
        <mxCell id="GFlZ5m6I7uKBJ6M-TDIo-49" value="CMS SQL DATABASE" style="text;html=1;strokeColor=none;fillColor=none;align=center;verticalAlign=middle;whiteSpace=wrap;rounded=0;" vertex="1" parent="itOuN0mKVWH0vXaiAye3-1">
          <mxGeometry x="3291.25" y="1420" width="127.5" height="20" as="geometry" />
        </mxCell>
        <mxCell id="GFlZ5m6I7uKBJ6M-TDIo-54" value="SNS" style="text;html=1;strokeColor=none;fillColor=none;align=center;verticalAlign=middle;whiteSpace=wrap;rounded=0;" vertex="1" parent="itOuN0mKVWH0vXaiAye3-1">
          <mxGeometry x="3941.75" y="1510" width="105" height="20" as="geometry" />
        </mxCell>
        <mxCell id="GFlZ5m6I7uKBJ6M-TDIo-55" value="Send failed run command&amp;nbsp; &amp;nbsp;&amp;nbsp;" style="text;html=1;strokeColor=none;fillColor=none;align=center;verticalAlign=middle;whiteSpace=wrap;rounded=0;" vertex="1" parent="itOuN0mKVWH0vXaiAye3-1">
          <mxGeometry x="3820" y="1350" width="170" height="20" as="geometry" />
        </mxCell>
        <mxCell id="GFlZ5m6I7uKBJ6M-TDIo-56" value="Git pull code" style="text;html=1;strokeColor=none;fillColor=none;align=center;verticalAlign=middle;whiteSpace=wrap;rounded=0;" vertex="1" parent="itOuN0mKVWH0vXaiAye3-1">
          <mxGeometry x="3920" y="1319" width="80" height="20" as="geometry" />
        </mxCell>
        <mxCell id="GFlZ5m6I7uKBJ6M-TDIo-57" value="Scale EC2" style="text;html=1;strokeColor=none;fillColor=none;align=center;verticalAlign=middle;whiteSpace=wrap;rounded=0;" vertex="1" parent="itOuN0mKVWH0vXaiAye3-1">
          <mxGeometry x="3640" y="1060" width="82.5" height="20" as="geometry" />
        </mxCell>
        <mxCell id="GFlZ5m6I7uKBJ6M-TDIo-58" value="Daily Backup EFS" style="text;html=1;strokeColor=none;fillColor=none;align=center;verticalAlign=middle;whiteSpace=wrap;rounded=0;" vertex="1" parent="itOuN0mKVWH0vXaiAye3-1">
          <mxGeometry x="4020" y="980" width="170" height="20" as="geometry" />
        </mxCell>
        <mxCell id="GFlZ5m6I7uKBJ6M-TDIo-61" value="Docker Information" style="text;html=1;strokeColor=none;fillColor=none;align=center;verticalAlign=middle;whiteSpace=wrap;rounded=0;" vertex="1" parent="itOuN0mKVWH0vXaiAye3-1">
          <mxGeometry x="3570" y="1350" width="170" height="20" as="geometry" />
        </mxCell>
        <mxCell id="GFlZ5m6I7uKBJ6M-TDIo-63" value="Send failed lambda notification&amp;nbsp;" style="text;html=1;strokeColor=none;fillColor=none;align=center;verticalAlign=middle;whiteSpace=wrap;rounded=0;" vertex="1" parent="itOuN0mKVWH0vXaiAye3-1">
          <mxGeometry x="3690" y="1470" width="170" height="20" as="geometry" />
        </mxCell>
        <mxCell id="GFlZ5m6I7uKBJ6M-TDIo-66" style="edgeStyle=orthogonalEdgeStyle;rounded=0;orthogonalLoop=1;jettySize=auto;html=1;" edge="1" parent="itOuN0mKVWH0vXaiAye3-1" source="GFlZ5m6I7uKBJ6M-TDIo-64">
          <mxGeometry relative="1" as="geometry">
            <mxPoint x="3660" y="1280" as="targetPoint" />
            <Array as="points">
              <mxPoint x="3660" y="1280" />
            </Array>
          </mxGeometry>
        </mxCell>
        <mxCell id="GFlZ5m6I7uKBJ6M-TDIo-64" value="" style="outlineConnect=0;dashed=0;verticalLabelPosition=bottom;verticalAlign=top;align=center;html=1;shape=mxgraph.aws3.instance_with_cloudwatch;fillColor=#F58534;gradientColor=none;" vertex="1" parent="itOuN0mKVWH0vXaiAye3-1">
          <mxGeometry x="3310" y="1170" width="70" height="70" as="geometry" />
        </mxCell>
        <mxCell id="GFlZ5m6I7uKBJ6M-TDIo-69" style="edgeStyle=orthogonalEdgeStyle;rounded=0;orthogonalLoop=1;jettySize=auto;html=1;" edge="1" parent="itOuN0mKVWH0vXaiAye3-1" source="GFlZ5m6I7uKBJ6M-TDIo-65">
          <mxGeometry relative="1" as="geometry">
            <mxPoint x="3770" y="1320" as="targetPoint" />
            <Array as="points">
              <mxPoint x="3770" y="1279" />
            </Array>
          </mxGeometry>
        </mxCell>
        <mxCell id="GFlZ5m6I7uKBJ6M-TDIo-65" value="GTTVPSDEPLOY" style="outlineConnect=0;fontColor=#232F3E;gradientColor=none;strokeColor=#232F3E;fillColor=#ffffff;dashed=0;verticalLabelPosition=bottom;verticalAlign=top;align=center;html=1;fontSize=12;fontStyle=0;aspect=fixed;shape=mxgraph.aws4.resourceIcon;resIcon=mxgraph.aws4.lambda_function;" vertex="1" parent="itOuN0mKVWH0vXaiAye3-1">
          <mxGeometry x="3667.5" y="1258" width="41" height="41" as="geometry" />
        </mxCell>
        <mxCell id="GFlZ5m6I7uKBJ6M-TDIo-67" value="Trigger every 30 minutes" style="text;html=1;strokeColor=none;fillColor=none;align=center;verticalAlign=middle;whiteSpace=wrap;rounded=0;" vertex="1" parent="itOuN0mKVWH0vXaiAye3-1">
          <mxGeometry x="3400" y="1258" width="170" height="20" as="geometry" />
        </mxCell>
        <mxCell id="GFlZ5m6I7uKBJ6M-TDIo-68" value="CLOUDWATCH" style="text;html=1;strokeColor=none;fillColor=none;align=center;verticalAlign=middle;whiteSpace=wrap;rounded=0;" vertex="1" parent="itOuN0mKVWH0vXaiAye3-1">
          <mxGeometry x="3282.5" y="1150" width="127.5" height="20" as="geometry" />
        </mxCell>
        <mxCell id="GFlZ5m6I7uKBJ6M-TDIo-79" style="edgeStyle=orthogonalEdgeStyle;rounded=0;orthogonalLoop=1;jettySize=auto;html=1;entryX=0;entryY=0.22;entryDx=0;entryDy=0;entryPerimeter=0;" edge="1" parent="itOuN0mKVWH0vXaiAye3-1" source="GFlZ5m6I7uKBJ6M-TDIo-72" target="GFlZ5m6I7uKBJ6M-TDIo-14">
          <mxGeometry relative="1" as="geometry">
            <Array as="points">
              <mxPoint x="3420" y="1325" />
              <mxPoint x="3420" y="1325" />
            </Array>
          </mxGeometry>
        </mxCell>
        <mxCell id="GFlZ5m6I7uKBJ6M-TDIo-72" value="GTTVPSLOCATIONUPDATE" style="outlineConnect=0;fontColor=#232F3E;gradientColor=none;strokeColor=#232F3E;fillColor=#ffffff;dashed=0;verticalLabelPosition=bottom;verticalAlign=top;align=center;html=1;fontSize=12;fontStyle=0;aspect=fixed;shape=mxgraph.aws4.resourceIcon;resIcon=mxgraph.aws4.lambda_function;" vertex="1" parent="itOuN0mKVWH0vXaiAye3-1">
          <mxGeometry x="3316.25" y="1310" width="60" height="60" as="geometry" />
        </mxCell>
        <mxCell id="GFlZ5m6I7uKBJ6M-TDIo-74" value="Trigger after sql write" style="text;html=1;strokeColor=none;fillColor=none;align=center;verticalAlign=middle;whiteSpace=wrap;rounded=0;" vertex="1" parent="itOuN0mKVWH0vXaiAye3-1">
          <mxGeometry x="3360" y="1339" width="170" height="20" as="geometry" />
        </mxCell>
      </root>
    </mxGraphModel>
  </diagram>
</mxfile>
